<mxfile host="app.diagrams.net" modified="2024-06-04T18:53:34.608Z" agent="Mozilla/5.0 (Windows NT 10.0; Win64; x64) AppleWebKit/537.36 (KHTML, like Gecko) Chrome/125.0.0.0 Safari/537.36" etag="GY56ikwlVXS5bfU8hCKw" version="24.4.10" type="github">
  <diagram name="Page-1" id="Gv5oOjXeplgvBmVMe_jC">
    <mxGraphModel dx="662" dy="458" grid="1" gridSize="10" guides="1" tooltips="1" connect="1" arrows="1" fold="1" page="1" pageScale="1" pageWidth="827" pageHeight="1169" math="0" shadow="0">
      <root>
        <mxCell id="0" />
        <mxCell id="1" parent="0" />
        <mxCell id="-EG4-MyawE5n80xoi_2L-333" value="" style="rounded=0;whiteSpace=wrap;html=1;align=left;verticalAlign=top;" vertex="1" parent="1">
          <mxGeometry x="10" y="525" width="640" height="325" as="geometry" />
        </mxCell>
        <mxCell id="-EG4-MyawE5n80xoi_2L-385" value="" style="whiteSpace=wrap;html=1;fillColor=default;" vertex="1" parent="1">
          <mxGeometry x="32" y="670" width="290" height="60" as="geometry" />
        </mxCell>
        <mxCell id="-EG4-MyawE5n80xoi_2L-303" value="T" style="text;html=1;align=center;verticalAlign=middle;whiteSpace=wrap;rounded=0;" vertex="1" parent="1">
          <mxGeometry x="64" y="200" width="60" height="30" as="geometry" />
        </mxCell>
        <mxCell id="-EG4-MyawE5n80xoi_2L-304" value="T&#39;" style="text;html=1;align=center;verticalAlign=middle;whiteSpace=wrap;rounded=0;" vertex="1" parent="1">
          <mxGeometry x="294" y="200" width="60" height="30" as="geometry" />
        </mxCell>
        <mxCell id="-EG4-MyawE5n80xoi_2L-330" value="" style="group" vertex="1" connectable="0" parent="1">
          <mxGeometry x="20" y="240" width="670" height="265" as="geometry" />
        </mxCell>
        <mxCell id="-EG4-MyawE5n80xoi_2L-377" value="" style="rounded=0;whiteSpace=wrap;html=1;align=left;verticalAlign=top;" vertex="1" parent="-EG4-MyawE5n80xoi_2L-330">
          <mxGeometry x="-10" width="640" height="245" as="geometry" />
        </mxCell>
        <mxCell id="-EG4-MyawE5n80xoi_2L-260" value="" style="shape=table;startSize=0;container=1;collapsible=0;childLayout=tableLayout;" vertex="1" parent="-EG4-MyawE5n80xoi_2L-330">
          <mxGeometry y="86" width="620" height="70" as="geometry" />
        </mxCell>
        <mxCell id="-EG4-MyawE5n80xoi_2L-261" value="" style="shape=tableRow;horizontal=0;startSize=0;swimlaneHead=0;swimlaneBody=0;strokeColor=inherit;top=0;left=0;bottom=0;right=0;collapsible=0;dropTarget=0;fillColor=none;points=[[0,0.5],[1,0.5]];portConstraint=eastwest;" vertex="1" parent="-EG4-MyawE5n80xoi_2L-260">
          <mxGeometry width="620" height="24" as="geometry" />
        </mxCell>
        <mxCell id="-EG4-MyawE5n80xoi_2L-262" value="R1 | R2" style="shape=partialRectangle;html=1;whiteSpace=wrap;connectable=0;strokeColor=inherit;overflow=hidden;fillColor=none;top=0;left=0;bottom=0;right=0;pointerEvents=1;" vertex="1" parent="-EG4-MyawE5n80xoi_2L-261">
          <mxGeometry width="111" height="24" as="geometry">
            <mxRectangle width="111" height="24" as="alternateBounds" />
          </mxGeometry>
        </mxCell>
        <mxCell id="-EG4-MyawE5n80xoi_2L-263" value="A | BCDE" style="shape=partialRectangle;html=1;whiteSpace=wrap;connectable=0;strokeColor=inherit;overflow=hidden;fillColor=none;top=0;left=0;bottom=0;right=0;pointerEvents=1;" vertex="1" parent="-EG4-MyawE5n80xoi_2L-261">
          <mxGeometry x="111" width="69" height="24" as="geometry">
            <mxRectangle width="69" height="24" as="alternateBounds" />
          </mxGeometry>
        </mxCell>
        <mxCell id="-EG4-MyawE5n80xoi_2L-300" value="B | ACDE" style="shape=partialRectangle;html=1;whiteSpace=wrap;connectable=0;strokeColor=inherit;overflow=hidden;fillColor=none;top=0;left=0;bottom=0;right=0;pointerEvents=1;" vertex="1" parent="-EG4-MyawE5n80xoi_2L-261">
          <mxGeometry x="180" width="90" height="24" as="geometry">
            <mxRectangle width="90" height="24" as="alternateBounds" />
          </mxGeometry>
        </mxCell>
        <mxCell id="-EG4-MyawE5n80xoi_2L-264" value="AB | CDE" style="shape=partialRectangle;html=1;whiteSpace=wrap;connectable=0;strokeColor=inherit;overflow=hidden;fillColor=none;top=0;left=0;bottom=0;right=0;pointerEvents=1;" vertex="1" parent="-EG4-MyawE5n80xoi_2L-261">
          <mxGeometry x="270" width="80" height="24" as="geometry">
            <mxRectangle width="80" height="24" as="alternateBounds" />
          </mxGeometry>
        </mxCell>
        <mxCell id="-EG4-MyawE5n80xoi_2L-267" value="CDE | AB" style="shape=partialRectangle;html=1;whiteSpace=wrap;connectable=0;strokeColor=inherit;overflow=hidden;fillColor=none;top=0;left=0;bottom=0;right=0;pointerEvents=1;" vertex="1" parent="-EG4-MyawE5n80xoi_2L-261">
          <mxGeometry x="350" width="80" height="24" as="geometry">
            <mxRectangle width="80" height="24" as="alternateBounds" />
          </mxGeometry>
        </mxCell>
        <mxCell id="-EG4-MyawE5n80xoi_2L-270" value="CE | ABD" style="shape=partialRectangle;html=1;whiteSpace=wrap;connectable=0;strokeColor=inherit;overflow=hidden;fillColor=none;top=0;left=0;bottom=0;right=0;pointerEvents=1;" vertex="1" parent="-EG4-MyawE5n80xoi_2L-261">
          <mxGeometry x="430" width="70" height="24" as="geometry">
            <mxRectangle width="70" height="24" as="alternateBounds" />
          </mxGeometry>
        </mxCell>
        <mxCell id="-EG4-MyawE5n80xoi_2L-271" value="..." style="shape=partialRectangle;html=1;whiteSpace=wrap;connectable=0;strokeColor=inherit;overflow=hidden;fillColor=none;top=0;left=0;bottom=0;right=0;pointerEvents=1;" vertex="1" parent="-EG4-MyawE5n80xoi_2L-261">
          <mxGeometry x="500" width="40" height="24" as="geometry">
            <mxRectangle width="40" height="24" as="alternateBounds" />
          </mxGeometry>
        </mxCell>
        <mxCell id="-EG4-MyawE5n80xoi_2L-370" value="Total" style="shape=partialRectangle;html=1;whiteSpace=wrap;connectable=0;strokeColor=inherit;overflow=hidden;fillColor=none;top=0;left=0;bottom=0;right=0;pointerEvents=1;" vertex="1" parent="-EG4-MyawE5n80xoi_2L-261">
          <mxGeometry x="540" width="80" height="24" as="geometry">
            <mxRectangle width="80" height="24" as="alternateBounds" />
          </mxGeometry>
        </mxCell>
        <mxCell id="-EG4-MyawE5n80xoi_2L-274" value="" style="shape=tableRow;horizontal=0;startSize=0;swimlaneHead=0;swimlaneBody=0;strokeColor=inherit;top=0;left=0;bottom=0;right=0;collapsible=0;dropTarget=0;fillColor=none;points=[[0,0.5],[1,0.5]];portConstraint=eastwest;" vertex="1" parent="-EG4-MyawE5n80xoi_2L-260">
          <mxGeometry y="24" width="620" height="22" as="geometry" />
        </mxCell>
        <mxCell id="-EG4-MyawE5n80xoi_2L-275" value="b&lt;sub&gt;i&lt;/sub&gt;" style="shape=partialRectangle;html=1;whiteSpace=wrap;connectable=0;strokeColor=inherit;overflow=hidden;fillColor=none;top=0;left=0;bottom=0;right=0;pointerEvents=1;" vertex="1" parent="-EG4-MyawE5n80xoi_2L-274">
          <mxGeometry width="111" height="22" as="geometry">
            <mxRectangle width="111" height="22" as="alternateBounds" />
          </mxGeometry>
        </mxCell>
        <mxCell id="-EG4-MyawE5n80xoi_2L-276" value="3" style="shape=partialRectangle;html=1;whiteSpace=wrap;connectable=0;strokeColor=inherit;overflow=hidden;fillColor=none;top=0;left=0;bottom=0;right=0;pointerEvents=1;" vertex="1" parent="-EG4-MyawE5n80xoi_2L-274">
          <mxGeometry x="111" width="69" height="22" as="geometry">
            <mxRectangle width="69" height="22" as="alternateBounds" />
          </mxGeometry>
        </mxCell>
        <mxCell id="-EG4-MyawE5n80xoi_2L-301" value="2" style="shape=partialRectangle;html=1;whiteSpace=wrap;connectable=0;strokeColor=inherit;overflow=hidden;fillColor=none;top=0;left=0;bottom=0;right=0;pointerEvents=1;" vertex="1" parent="-EG4-MyawE5n80xoi_2L-274">
          <mxGeometry x="180" width="90" height="22" as="geometry">
            <mxRectangle width="90" height="22" as="alternateBounds" />
          </mxGeometry>
        </mxCell>
        <mxCell id="-EG4-MyawE5n80xoi_2L-277" value="&lt;font color=&quot;#cc0000&quot;&gt;1&lt;/font&gt;" style="shape=partialRectangle;html=1;whiteSpace=wrap;connectable=0;strokeColor=inherit;overflow=hidden;fillColor=none;top=0;left=0;bottom=0;right=0;pointerEvents=1;" vertex="1" parent="-EG4-MyawE5n80xoi_2L-274">
          <mxGeometry x="270" width="80" height="22" as="geometry">
            <mxRectangle width="80" height="22" as="alternateBounds" />
          </mxGeometry>
        </mxCell>
        <mxCell id="-EG4-MyawE5n80xoi_2L-280" value="2" style="shape=partialRectangle;html=1;whiteSpace=wrap;connectable=0;strokeColor=inherit;overflow=hidden;fillColor=none;top=0;left=0;bottom=0;right=0;pointerEvents=1;" vertex="1" parent="-EG4-MyawE5n80xoi_2L-274">
          <mxGeometry x="350" width="80" height="22" as="geometry">
            <mxRectangle width="80" height="22" as="alternateBounds" />
          </mxGeometry>
        </mxCell>
        <mxCell id="-EG4-MyawE5n80xoi_2L-283" value="0" style="shape=partialRectangle;html=1;whiteSpace=wrap;connectable=0;strokeColor=inherit;overflow=hidden;fillColor=none;top=0;left=0;bottom=0;right=0;pointerEvents=1;" vertex="1" parent="-EG4-MyawE5n80xoi_2L-274">
          <mxGeometry x="430" width="70" height="22" as="geometry">
            <mxRectangle width="70" height="22" as="alternateBounds" />
          </mxGeometry>
        </mxCell>
        <mxCell id="-EG4-MyawE5n80xoi_2L-284" value="..." style="shape=partialRectangle;html=1;whiteSpace=wrap;connectable=0;strokeColor=inherit;overflow=hidden;fillColor=none;top=0;left=0;bottom=0;right=0;pointerEvents=1;" vertex="1" parent="-EG4-MyawE5n80xoi_2L-274">
          <mxGeometry x="500" width="40" height="22" as="geometry">
            <mxRectangle width="40" height="22" as="alternateBounds" />
          </mxGeometry>
        </mxCell>
        <mxCell id="-EG4-MyawE5n80xoi_2L-371" value="15" style="shape=partialRectangle;html=1;whiteSpace=wrap;connectable=0;strokeColor=inherit;overflow=hidden;fillColor=none;top=0;left=0;bottom=0;right=0;pointerEvents=1;" vertex="1" parent="-EG4-MyawE5n80xoi_2L-274">
          <mxGeometry x="540" width="80" height="22" as="geometry">
            <mxRectangle width="80" height="22" as="alternateBounds" />
          </mxGeometry>
        </mxCell>
        <mxCell id="-EG4-MyawE5n80xoi_2L-287" value="" style="shape=tableRow;horizontal=0;startSize=0;swimlaneHead=0;swimlaneBody=0;strokeColor=inherit;top=0;left=0;bottom=0;right=0;collapsible=0;dropTarget=0;fillColor=none;points=[[0,0.5],[1,0.5]];portConstraint=eastwest;" vertex="1" parent="-EG4-MyawE5n80xoi_2L-260">
          <mxGeometry y="46" width="620" height="24" as="geometry" />
        </mxCell>
        <mxCell id="-EG4-MyawE5n80xoi_2L-288" value="b&lt;sub&gt;i&lt;/sub&gt;&#39;" style="shape=partialRectangle;html=1;whiteSpace=wrap;connectable=0;strokeColor=inherit;overflow=hidden;fillColor=none;top=0;left=0;bottom=0;right=0;pointerEvents=1;" vertex="1" parent="-EG4-MyawE5n80xoi_2L-287">
          <mxGeometry width="111" height="24" as="geometry">
            <mxRectangle width="111" height="24" as="alternateBounds" />
          </mxGeometry>
        </mxCell>
        <mxCell id="-EG4-MyawE5n80xoi_2L-289" value="6" style="shape=partialRectangle;html=1;whiteSpace=wrap;connectable=0;strokeColor=inherit;overflow=hidden;fillColor=none;top=0;left=0;bottom=0;right=0;pointerEvents=1;" vertex="1" parent="-EG4-MyawE5n80xoi_2L-287">
          <mxGeometry x="111" width="69" height="24" as="geometry">
            <mxRectangle width="69" height="24" as="alternateBounds" />
          </mxGeometry>
        </mxCell>
        <mxCell id="-EG4-MyawE5n80xoi_2L-302" value="4" style="shape=partialRectangle;html=1;whiteSpace=wrap;connectable=0;strokeColor=inherit;overflow=hidden;fillColor=none;top=0;left=0;bottom=0;right=0;pointerEvents=1;" vertex="1" parent="-EG4-MyawE5n80xoi_2L-287">
          <mxGeometry x="180" width="90" height="24" as="geometry">
            <mxRectangle width="90" height="24" as="alternateBounds" />
          </mxGeometry>
        </mxCell>
        <mxCell id="-EG4-MyawE5n80xoi_2L-290" value="&lt;font color=&quot;#cc0000&quot;&gt;2&lt;/font&gt;" style="shape=partialRectangle;html=1;whiteSpace=wrap;connectable=0;strokeColor=inherit;overflow=hidden;fillColor=none;top=0;left=0;bottom=0;right=0;pointerEvents=1;" vertex="1" parent="-EG4-MyawE5n80xoi_2L-287">
          <mxGeometry x="270" width="80" height="24" as="geometry">
            <mxRectangle width="80" height="24" as="alternateBounds" />
          </mxGeometry>
        </mxCell>
        <mxCell id="-EG4-MyawE5n80xoi_2L-293" value="4" style="shape=partialRectangle;html=1;whiteSpace=wrap;connectable=0;strokeColor=inherit;overflow=hidden;fillColor=none;top=0;left=0;bottom=0;right=0;pointerEvents=1;" vertex="1" parent="-EG4-MyawE5n80xoi_2L-287">
          <mxGeometry x="350" width="80" height="24" as="geometry">
            <mxRectangle width="80" height="24" as="alternateBounds" />
          </mxGeometry>
        </mxCell>
        <mxCell id="-EG4-MyawE5n80xoi_2L-296" value="6" style="shape=partialRectangle;html=1;whiteSpace=wrap;connectable=0;strokeColor=inherit;overflow=hidden;fillColor=none;top=0;left=0;bottom=0;right=0;pointerEvents=1;" vertex="1" parent="-EG4-MyawE5n80xoi_2L-287">
          <mxGeometry x="430" width="70" height="24" as="geometry">
            <mxRectangle width="70" height="24" as="alternateBounds" />
          </mxGeometry>
        </mxCell>
        <mxCell id="-EG4-MyawE5n80xoi_2L-297" value="..." style="shape=partialRectangle;html=1;whiteSpace=wrap;connectable=0;strokeColor=inherit;overflow=hidden;fillColor=none;top=0;left=0;bottom=0;right=0;pointerEvents=1;" vertex="1" parent="-EG4-MyawE5n80xoi_2L-287">
          <mxGeometry x="500" width="40" height="24" as="geometry">
            <mxRectangle width="40" height="24" as="alternateBounds" />
          </mxGeometry>
        </mxCell>
        <mxCell id="-EG4-MyawE5n80xoi_2L-372" value="30" style="shape=partialRectangle;html=1;whiteSpace=wrap;connectable=0;strokeColor=inherit;overflow=hidden;fillColor=none;top=0;left=0;bottom=0;right=0;pointerEvents=1;" vertex="1" parent="-EG4-MyawE5n80xoi_2L-287">
          <mxGeometry x="540" width="80" height="24" as="geometry">
            <mxRectangle width="80" height="24" as="alternateBounds" />
          </mxGeometry>
        </mxCell>
        <mxCell id="-EG4-MyawE5n80xoi_2L-307" value="" style="endArrow=classic;html=1;rounded=0;exitX=0.101;exitY=0.086;exitDx=0;exitDy=0;exitPerimeter=0;edgeStyle=orthogonalEdgeStyle;curved=1;" edge="1" parent="-EG4-MyawE5n80xoi_2L-330" source="-EG4-MyawE5n80xoi_2L-261">
          <mxGeometry width="50" height="50" relative="1" as="geometry">
            <mxPoint x="160" y="26" as="sourcePoint" />
            <mxPoint x="100" y="56" as="targetPoint" />
            <Array as="points">
              <mxPoint x="50" y="88" />
              <mxPoint x="50" y="56" />
            </Array>
          </mxGeometry>
        </mxCell>
        <mxCell id="-EG4-MyawE5n80xoi_2L-308" value="with root on R2 side" style="text;html=1;align=center;verticalAlign=middle;whiteSpace=wrap;rounded=0;" vertex="1" parent="-EG4-MyawE5n80xoi_2L-330">
          <mxGeometry x="104" y="40" width="126" height="30" as="geometry" />
        </mxCell>
        <mxCell id="-EG4-MyawE5n80xoi_2L-378" value="&lt;span style=&quot;font-size: 15px;&quot;&gt;Absolute length&lt;/span&gt;" style="text;strokeColor=none;fillColor=none;align=left;verticalAlign=middle;spacingLeft=4;spacingRight=4;overflow=hidden;points=[[0,0.5],[1,0.5]];portConstraint=eastwest;rotatable=0;whiteSpace=wrap;html=1;" vertex="1" parent="-EG4-MyawE5n80xoi_2L-330">
          <mxGeometry x="250" y="10" width="120" height="30" as="geometry" />
        </mxCell>
        <mxCell id="-EG4-MyawE5n80xoi_2L-326" value="&lt;font style=&quot;font-size: 16px;&quot;&gt;69&lt;/font&gt;" style="text;strokeColor=none;fillColor=none;align=left;verticalAlign=middle;spacingLeft=4;spacingRight=4;overflow=hidden;points=[[0,0.5],[1,0.5]];portConstraint=eastwest;rotatable=0;whiteSpace=wrap;html=1;" vertex="1" parent="-EG4-MyawE5n80xoi_2L-330">
          <mxGeometry x="290" y="185" width="34" height="30" as="geometry" />
        </mxCell>
        <mxCell id="-EG4-MyawE5n80xoi_2L-319" style="edgeStyle=orthogonalEdgeStyle;rounded=0;orthogonalLoop=1;jettySize=auto;html=1;exitX=1;exitY=0.5;exitDx=0;exitDy=0;entryX=0;entryY=0.5;entryDx=0;entryDy=0;" edge="1" parent="-EG4-MyawE5n80xoi_2L-330" source="-EG4-MyawE5n80xoi_2L-311" target="-EG4-MyawE5n80xoi_2L-326">
          <mxGeometry relative="1" as="geometry">
            <mxPoint x="280" y="200" as="targetPoint" />
          </mxGeometry>
        </mxCell>
        <mxCell id="-EG4-MyawE5n80xoi_2L-311" value="" style="whiteSpace=wrap;html=1;fillColor=default;" vertex="1" parent="-EG4-MyawE5n80xoi_2L-330">
          <mxGeometry y="170" width="220" height="60" as="geometry" />
        </mxCell>
        <mxCell id="-EG4-MyawE5n80xoi_2L-312" value="" style="shape=image;verticalLabelPosition=bottom;labelBackgroundColor=default;verticalAlign=top;aspect=fixed;imageAspect=0;image=data:image/png,iVBORw0KGgoAAAANSUhEUgAAAHAAAAA8CAYAAAC+ej5cAAAAAXNSR0IArs4c6QAAAARnQU1BAACxjwv8YQUAAAAJcEhZcwAADsMAAA7DAcdvqGQAAAo5SURBVHhe7ZwJbA1PHMfHrSiijraOqLqiqKuESkppVUNTJCg9QgSpOKJURJxNXNXUFaGuNNQVN0GjqqE0qq0zqKKUhlYPFVpXzX++82Z5fee+q38v2U+y2Te/3ff2+M785je/nX11KIMo2C11xVrBTlEEtHMscqHJycmkvLycuLi4EB8fH2ElJD09nbx79440b96cBAYGCquCLbCoBUK8yMhI4uvrS8rKyoSVkIyMDDJ37lxSUlIiLAq2wiIBg4KCiJOTE/n9+zdJSkoSVkLc3d1JWFgYCQ8PFxYFW2GRgI8ePeLrrl27kvj4eFJRUcHLKSkpZOLEifyzgm2xSEC4yiVLlpCoqCiSn59PTp06xVtjcXEx8fb2Fnsp2BKLBEQQ4+/vT2bMmEHc3NzIxo0bSWpqKt/WsGFDvlawLWYL+Pr1a4IAFsI1atSIREdHk7y8PBISEkICAgLEXgq2xmwBpdYn4efnRxwdHcmXL1+UoUMtYpaAX79+JcePHyeenp7Cooo8g4ODyZAhQ4irq6uwKtgcDORNhfV5tE2bNnT69OnCouLVq1f05MmToqRQGyjJbDvHoihU4f9HEdDOUQS0cxQB7RwliPmH+fbtG9m2bRsfWyNhMnPmTLFFDQio8G8SEhJCGzduTB0cHNDI6Pz588WWv8hugTt37iQ3b94UJfmwEyBxcXGkdevWwqIgBzwQxzNVJEyQV540aRK5cOEC+fDhA2nXrp3YywQXeunSJTJ58mSehQErV64kLVu25J81efPmDUlLSyPPnj0jP378IFeuXCFjxowRW+WD3+nUqROpU6eOsKgoLCzkj6+QzkMeFk9FGjRoILbaFuSA169fT86ePcvLePKij4sXL/L7EBsbq3UN9+/f509uBgwYICzafP/+nV8fOHr0KJk2bZqWgCa50HPnztFmzZr9ac6/fv0SW3Rz+/Ztyg5GmR8XFnlUV1fTtWvX0mHDhlFWAYT1L5WVlfz4OI9Ro0ZRdiPEFtvD+iN65swZfuzAwEBh1QbXMHDgQL4fPmuSnZ1NO3bsSI8cOSIshlm9ejX18fGhP3/+FBYVJveB79+/p926deMntmjRImHVz/bt22lYWJgoySMmJob7fhxLH6wV8HPA79c2e/bs4cdevny5sGiTm5vL98FN10dqaipl7pFXCEOg0qAhXL9+XVj+YlYQU1BQQLt3706ZW6Cenp60pKREbNGmqqqKTpgwQZSMk5KSQuvWrUt3794tLLqJioqi9erV03lRtiYyMpIyl809jD6wDQKeP39eWLSB5wgICOD38uPHj8JaE9w/BDN79+4VlpqYHYXm5eXR8ePH85P08vKipaWlYos2Bw8eFJ8Mw8Jm2qVLF9q+fXvuJvXB+gFeI5s0aSIstQdcOuuXqZOTk7DohsUI1NXVlbceQ+zbt4/fw+joaGH5C47Fhg4GuyCLhhGfP3+m3t7e/ASwrqioEFvMgwU7/LdGjhwpLLpB/4H9goKC6I0bN+jYsWOpn5+fzptgbdLT0/mxp0yZwl2gv78/P/bixYtpUVGR2IvS0NBQunXrVlHSDyo+fg8Vory8XFgpffv2Le96mjZtyn9fWjSf9lgkIIAbCA4O5ifRv39/foHmEh4ezn9nxYoVwqIbuE/sB1fbu3dvmpCQQD08PLhLX7NmjdjLNmzZsuXPsXHdBw4coCzC5jaUJVDJ9LlFTRAM4fsIEiVu3bpFR4wYobXcvXtX7KHCYgEB/LTkTocOHSqspiNFuCdOnBAW3SDyxH6jR4+mbFjDbfgObH379uVlfbDxFX358qXs5dOnT+KbKhAZ4zjjxo374+bZ+JjbMOA2B0nAiIgIYZGPVQQEuFg2LrTIjeEisDx9+lRYtIEAjo6OfHn+/LmwUv4dfBeBjTqaYTcqGCI/zaV+/fo67er9D7wNKhmuk40HhZXSnJwcgwLqGgqps3DhQv59eDBTsZqA6BMQkcp1G7qQIyACIuyjORtAEhB9jwT6FwQSmZmZwqIfVAxj41pp/Ddr1ixhUSEJiD5KF6hUp0+fFiVtMBbE980R0CpPI1atWkXYDeTZGlunzKRpi2xowtcSmJMK1DMbyM5g3ipzq8KiHxb5EnajRUk3TAS+1jz2vXv3+Lpfv358rQmmW6q/O2JNLBKQVQDCOnVy7NgxnjaqjclMly9fJm3btiXDhw8XFhUPHjzgL9NIUxqRhnr48CGfIS6loyyhurqaPH78mDBXS1jgJKwqkBZr1aoVmT17trCoQBqRtVp+TtiuD+bm+bpnz558bRKqhmge8fHxfEyEkNcaILWEU7p69aqw1ATHQaSJFJU6T5484eF2XFycsFCalpZGmaCU3VRhsQwEajg3VnGERQUTj2eNdu3aJSx/wXk5OzvzoYYhpCBG/fzlYraA6NzRmb948UJYdIMggrkQUTKM1JnrG0YcPnyYb9+8ebOwUD52Gjx4MF2wYEGNnCPEZrVebwbDVBITE/mxd+zYISyqPhb9/rJly3TmO3FuyNjs379fWHQjCYh+2FTMEhDjLkRccpLUycnJfMAtB+QPkV3Rl3pDsIDjYuwHETds2MDzsnPmzNGK9A4dOsRbIKY6WoOMjAxeYREUsT6f52v79OnDB+v6gh9J9LKyMmHRBskPRNS+vr5GgyhdmCwgBpiIquQ0d2RJWrRoITuVBqZOncrnnBYXFwtLTVi/xm8e8oPI0LMAQmypCev7uHu3Jsi0IFsEt5yUlGQ04kZ2pnPnzgafliCzApFxr8zBJAHhlpCrXLp0qbDoBsnt2NhYLh5cyJ07d8QW40A4FxcXo8cwBgt0+JDC0vSeuaDP7NWrFx9a6KuMyOmij4T7NxfZAhYWFnLXhdqCFuLu7q53wUlhPyxubm7iF+SDrArcX1ZWlrCYDgREUlx9wF2bwHWz6JcP/BHoaILEPbwN8riGEvfGkC0gsuKSKFgQDWLRZ0OuEK4WeUtzgIgITnCh5oDHOfn5+aL0/4A+W19SAsEfnqfigYAlyJ5SgTEQxloSzD3yga/6u/EslOcLphngJRe8uatgW5RphXaOMrHXzlEEtHMUAe0cRUA7RxHQzpEtIGZDZ2ZmipJpKH+5ZTtkC4iHmREREaIkj4KCAhIaGirrgaqCecgSEPPys7OzSUJCgrDIA+814P0IzOdXsA2yBOzQoQNJTEwkVVVVvDxo0CAujubi7u7OMzYKtYesTAzexsHrZbm5ufzPfLAuKiri29TfCsLUBc23bSB2Tk4OfxNHwfrIEtDLy4uLgz9yBR4eHqSyspLb1P/sB6xbt4706NFDlBQBbY1RAfF6L9zjvHnzSExMDLeVlpbiKQb/rAneGcTEHwk/Pz9y7do1RUAbYbQPRKvDP/NmZWX9eZkRf/KK6YO6FnXxIJokHGZoKVgfowI6OztzV4nHQ5jOZwqYAoh5nGitmzZtElYFayKrD0R/5+DgoPWasDHw0/guQCVQb50K1kF5HmjnyM7EKPybKALaNYT8B2MA6Db+HvMOAAAAAElFTkSuQmCC;" vertex="1" parent="-EG4-MyawE5n80xoi_2L-330">
          <mxGeometry x="122" y="177.5" width="84" height="45" as="geometry" />
        </mxCell>
        <mxCell id="-EG4-MyawE5n80xoi_2L-331" value="" style="group" vertex="1" connectable="0" parent="1">
          <mxGeometry x="254" y="20" width="160" height="180" as="geometry" />
        </mxCell>
        <mxCell id="-EG4-MyawE5n80xoi_2L-226" style="rounded=0;orthogonalLoop=1;jettySize=auto;html=1;exitX=0;exitY=1;exitDx=0;exitDy=0;entryX=0.5;entryY=0;entryDx=0;entryDy=0;" edge="1" parent="-EG4-MyawE5n80xoi_2L-331" source="-EG4-MyawE5n80xoi_2L-228" target="-EG4-MyawE5n80xoi_2L-231">
          <mxGeometry relative="1" as="geometry">
            <mxPoint x="40.000000000000114" y="50" as="targetPoint" />
          </mxGeometry>
        </mxCell>
        <mxCell id="-EG4-MyawE5n80xoi_2L-252" value="2" style="edgeLabel;html=1;align=center;verticalAlign=middle;resizable=0;points=[];fontSize=13;fontColor=#CC0000;fontStyle=1" vertex="1" connectable="0" parent="-EG4-MyawE5n80xoi_2L-226">
          <mxGeometry x="-0.1291" relative="1" as="geometry">
            <mxPoint as="offset" />
          </mxGeometry>
        </mxCell>
        <mxCell id="-EG4-MyawE5n80xoi_2L-227" style="rounded=0;orthogonalLoop=1;jettySize=auto;html=1;exitX=1;exitY=1;exitDx=0;exitDy=0;entryX=0.5;entryY=0;entryDx=0;entryDy=0;" edge="1" parent="-EG4-MyawE5n80xoi_2L-331" source="-EG4-MyawE5n80xoi_2L-228" target="-EG4-MyawE5n80xoi_2L-234">
          <mxGeometry relative="1" as="geometry" />
        </mxCell>
        <mxCell id="-EG4-MyawE5n80xoi_2L-255" value="4" style="edgeLabel;html=1;align=center;verticalAlign=middle;resizable=0;points=[];fontSize=13;" vertex="1" connectable="0" parent="-EG4-MyawE5n80xoi_2L-227">
          <mxGeometry x="-0.1732" relative="1" as="geometry">
            <mxPoint as="offset" />
          </mxGeometry>
        </mxCell>
        <mxCell id="-EG4-MyawE5n80xoi_2L-228" value="" style="ellipse;whiteSpace=wrap;html=1;aspect=fixed;fillColor=#f5f5f5;fontColor=#333333;strokeColor=#666666;" vertex="1" parent="-EG4-MyawE5n80xoi_2L-331">
          <mxGeometry x="60" width="20" height="20" as="geometry" />
        </mxCell>
        <mxCell id="-EG4-MyawE5n80xoi_2L-229" style="rounded=0;orthogonalLoop=1;jettySize=auto;html=1;exitX=0;exitY=1;exitDx=0;exitDy=0;entryX=0.5;entryY=0;entryDx=0;entryDy=0;" edge="1" parent="-EG4-MyawE5n80xoi_2L-331" source="-EG4-MyawE5n80xoi_2L-231" target="-EG4-MyawE5n80xoi_2L-235">
          <mxGeometry relative="1" as="geometry" />
        </mxCell>
        <mxCell id="-EG4-MyawE5n80xoi_2L-253" value="6" style="edgeLabel;html=1;align=center;verticalAlign=middle;resizable=0;points=[];fontSize=13;" vertex="1" connectable="0" parent="-EG4-MyawE5n80xoi_2L-229">
          <mxGeometry x="-0.318" y="1" relative="1" as="geometry">
            <mxPoint x="-1" as="offset" />
          </mxGeometry>
        </mxCell>
        <mxCell id="-EG4-MyawE5n80xoi_2L-230" style="rounded=0;orthogonalLoop=1;jettySize=auto;html=1;exitX=1;exitY=1;exitDx=0;exitDy=0;entryX=0.5;entryY=0;entryDx=0;entryDy=0;" edge="1" parent="-EG4-MyawE5n80xoi_2L-331" source="-EG4-MyawE5n80xoi_2L-231" target="-EG4-MyawE5n80xoi_2L-236">
          <mxGeometry relative="1" as="geometry" />
        </mxCell>
        <mxCell id="-EG4-MyawE5n80xoi_2L-254" value="4" style="edgeLabel;html=1;align=center;verticalAlign=middle;resizable=0;points=[];fontSize=13;" vertex="1" connectable="0" parent="-EG4-MyawE5n80xoi_2L-230">
          <mxGeometry x="-0.3885" relative="1" as="geometry">
            <mxPoint y="2" as="offset" />
          </mxGeometry>
        </mxCell>
        <mxCell id="-EG4-MyawE5n80xoi_2L-231" value="" style="ellipse;whiteSpace=wrap;html=1;aspect=fixed;fillColor=#f5f5f5;fontColor=#333333;strokeColor=#666666;" vertex="1" parent="-EG4-MyawE5n80xoi_2L-331">
          <mxGeometry x="20" y="60" width="20" height="20" as="geometry" />
        </mxCell>
        <mxCell id="-EG4-MyawE5n80xoi_2L-232" style="rounded=0;orthogonalLoop=1;jettySize=auto;html=1;exitX=0;exitY=1;exitDx=0;exitDy=0;entryX=0.5;entryY=0;entryDx=0;entryDy=0;" edge="1" parent="-EG4-MyawE5n80xoi_2L-331" source="-EG4-MyawE5n80xoi_2L-234" target="-EG4-MyawE5n80xoi_2L-237">
          <mxGeometry relative="1" as="geometry" />
        </mxCell>
        <mxCell id="-EG4-MyawE5n80xoi_2L-256" value="2" style="edgeLabel;html=1;align=center;verticalAlign=middle;resizable=0;points=[];fontSize=13;" vertex="1" connectable="0" parent="-EG4-MyawE5n80xoi_2L-232">
          <mxGeometry x="-0.2543" relative="1" as="geometry">
            <mxPoint as="offset" />
          </mxGeometry>
        </mxCell>
        <mxCell id="-EG4-MyawE5n80xoi_2L-233" style="rounded=0;orthogonalLoop=1;jettySize=auto;html=1;exitX=1;exitY=1;exitDx=0;exitDy=0;entryX=0.5;entryY=0;entryDx=0;entryDy=0;" edge="1" parent="-EG4-MyawE5n80xoi_2L-331" source="-EG4-MyawE5n80xoi_2L-234" target="-EG4-MyawE5n80xoi_2L-240">
          <mxGeometry relative="1" as="geometry" />
        </mxCell>
        <mxCell id="-EG4-MyawE5n80xoi_2L-257" value="6" style="edgeLabel;html=1;align=center;verticalAlign=middle;resizable=0;points=[];fontSize=13;" vertex="1" connectable="0" parent="-EG4-MyawE5n80xoi_2L-233">
          <mxGeometry x="-0.2831" y="-1" relative="1" as="geometry">
            <mxPoint as="offset" />
          </mxGeometry>
        </mxCell>
        <mxCell id="-EG4-MyawE5n80xoi_2L-234" value="" style="ellipse;whiteSpace=wrap;html=1;aspect=fixed;fillColor=#f5f5f5;fontColor=#333333;strokeColor=#666666;" vertex="1" parent="-EG4-MyawE5n80xoi_2L-331">
          <mxGeometry x="100" y="60" width="20" height="20" as="geometry" />
        </mxCell>
        <mxCell id="-EG4-MyawE5n80xoi_2L-235" value="A" style="ellipse;whiteSpace=wrap;html=1;aspect=fixed;" vertex="1" parent="-EG4-MyawE5n80xoi_2L-331">
          <mxGeometry y="110" width="20" height="20" as="geometry" />
        </mxCell>
        <mxCell id="-EG4-MyawE5n80xoi_2L-236" value="B" style="ellipse;whiteSpace=wrap;html=1;aspect=fixed;" vertex="1" parent="-EG4-MyawE5n80xoi_2L-331">
          <mxGeometry x="40" y="110" width="20" height="20" as="geometry" />
        </mxCell>
        <mxCell id="-EG4-MyawE5n80xoi_2L-237" value="D" style="ellipse;whiteSpace=wrap;html=1;aspect=fixed;" vertex="1" parent="-EG4-MyawE5n80xoi_2L-331">
          <mxGeometry x="80" y="110" width="20" height="20" as="geometry" />
        </mxCell>
        <mxCell id="-EG4-MyawE5n80xoi_2L-238" style="rounded=0;orthogonalLoop=1;jettySize=auto;html=1;exitX=0;exitY=1;exitDx=0;exitDy=0;entryX=0.5;entryY=0;entryDx=0;entryDy=0;" edge="1" parent="-EG4-MyawE5n80xoi_2L-331" source="-EG4-MyawE5n80xoi_2L-240" target="-EG4-MyawE5n80xoi_2L-241">
          <mxGeometry relative="1" as="geometry" />
        </mxCell>
        <mxCell id="-EG4-MyawE5n80xoi_2L-258" value="2" style="edgeLabel;html=1;align=center;verticalAlign=middle;resizable=0;points=[];fontSize=13;" vertex="1" connectable="0" parent="-EG4-MyawE5n80xoi_2L-238">
          <mxGeometry x="-0.3279" y="-1" relative="1" as="geometry">
            <mxPoint as="offset" />
          </mxGeometry>
        </mxCell>
        <mxCell id="-EG4-MyawE5n80xoi_2L-239" style="rounded=0;orthogonalLoop=1;jettySize=auto;html=1;exitX=1;exitY=1;exitDx=0;exitDy=0;entryX=0.5;entryY=0;entryDx=0;entryDy=0;" edge="1" parent="-EG4-MyawE5n80xoi_2L-331" source="-EG4-MyawE5n80xoi_2L-240" target="-EG4-MyawE5n80xoi_2L-242">
          <mxGeometry relative="1" as="geometry" />
        </mxCell>
        <mxCell id="-EG4-MyawE5n80xoi_2L-259" value="4" style="edgeLabel;html=1;align=center;verticalAlign=middle;resizable=0;points=[];fontSize=13;" vertex="1" connectable="0" parent="-EG4-MyawE5n80xoi_2L-239">
          <mxGeometry x="-0.4939" y="1" relative="1" as="geometry">
            <mxPoint x="-1" y="5" as="offset" />
          </mxGeometry>
        </mxCell>
        <mxCell id="-EG4-MyawE5n80xoi_2L-240" value="" style="ellipse;whiteSpace=wrap;html=1;aspect=fixed;fillColor=#f5f5f5;fontColor=#333333;strokeColor=#666666;" vertex="1" parent="-EG4-MyawE5n80xoi_2L-331">
          <mxGeometry x="120" y="110" width="20" height="20" as="geometry" />
        </mxCell>
        <mxCell id="-EG4-MyawE5n80xoi_2L-241" value="C" style="ellipse;whiteSpace=wrap;html=1;aspect=fixed;" vertex="1" parent="-EG4-MyawE5n80xoi_2L-331">
          <mxGeometry x="100" y="160" width="20" height="20" as="geometry" />
        </mxCell>
        <mxCell id="-EG4-MyawE5n80xoi_2L-242" value="E" style="ellipse;whiteSpace=wrap;html=1;aspect=fixed;" vertex="1" parent="-EG4-MyawE5n80xoi_2L-331">
          <mxGeometry x="140" y="160" width="20" height="20" as="geometry" />
        </mxCell>
        <mxCell id="-EG4-MyawE5n80xoi_2L-332" value="" style="group" vertex="1" connectable="0" parent="1">
          <mxGeometry x="24" y="20" width="160" height="180" as="geometry" />
        </mxCell>
        <mxCell id="-EG4-MyawE5n80xoi_2L-182" style="rounded=0;orthogonalLoop=1;jettySize=auto;html=1;exitX=0;exitY=1;exitDx=0;exitDy=0;entryX=0.5;entryY=0;entryDx=0;entryDy=0;" edge="1" parent="-EG4-MyawE5n80xoi_2L-332" source="-EG4-MyawE5n80xoi_2L-181" target="-EG4-MyawE5n80xoi_2L-183">
          <mxGeometry relative="1" as="geometry">
            <mxPoint x="40.000000000000114" y="50" as="targetPoint" />
          </mxGeometry>
        </mxCell>
        <mxCell id="-EG4-MyawE5n80xoi_2L-243" value="1" style="edgeLabel;html=1;align=center;verticalAlign=middle;resizable=0;points=[];fontSize=13;fontColor=#CC0000;fontStyle=1" vertex="1" connectable="0" parent="-EG4-MyawE5n80xoi_2L-182">
          <mxGeometry x="-0.0322" y="-2" relative="1" as="geometry">
            <mxPoint as="offset" />
          </mxGeometry>
        </mxCell>
        <mxCell id="-EG4-MyawE5n80xoi_2L-185" style="rounded=0;orthogonalLoop=1;jettySize=auto;html=1;exitX=1;exitY=1;exitDx=0;exitDy=0;entryX=0.5;entryY=0;entryDx=0;entryDy=0;" edge="1" parent="-EG4-MyawE5n80xoi_2L-332" source="-EG4-MyawE5n80xoi_2L-181" target="-EG4-MyawE5n80xoi_2L-184">
          <mxGeometry relative="1" as="geometry" />
        </mxCell>
        <mxCell id="-EG4-MyawE5n80xoi_2L-246" value="2" style="edgeLabel;html=1;align=center;verticalAlign=middle;resizable=0;points=[];fontSize=13;" vertex="1" connectable="0" parent="-EG4-MyawE5n80xoi_2L-185">
          <mxGeometry x="-0.2046" y="1" relative="1" as="geometry">
            <mxPoint as="offset" />
          </mxGeometry>
        </mxCell>
        <mxCell id="-EG4-MyawE5n80xoi_2L-181" value="" style="ellipse;whiteSpace=wrap;html=1;aspect=fixed;fillColor=#f5f5f5;fontColor=#333333;strokeColor=#666666;" vertex="1" parent="-EG4-MyawE5n80xoi_2L-332">
          <mxGeometry x="60" width="20" height="20" as="geometry" />
        </mxCell>
        <mxCell id="-EG4-MyawE5n80xoi_2L-191" style="rounded=0;orthogonalLoop=1;jettySize=auto;html=1;exitX=0;exitY=1;exitDx=0;exitDy=0;entryX=0.5;entryY=0;entryDx=0;entryDy=0;" edge="1" parent="-EG4-MyawE5n80xoi_2L-332" source="-EG4-MyawE5n80xoi_2L-183" target="-EG4-MyawE5n80xoi_2L-186">
          <mxGeometry relative="1" as="geometry" />
        </mxCell>
        <mxCell id="-EG4-MyawE5n80xoi_2L-244" value="3" style="edgeLabel;html=1;align=center;verticalAlign=middle;resizable=0;points=[];fontSize=13;" vertex="1" connectable="0" parent="-EG4-MyawE5n80xoi_2L-191">
          <mxGeometry x="-0.1906" relative="1" as="geometry">
            <mxPoint as="offset" />
          </mxGeometry>
        </mxCell>
        <mxCell id="-EG4-MyawE5n80xoi_2L-193" style="rounded=0;orthogonalLoop=1;jettySize=auto;html=1;exitX=1;exitY=1;exitDx=0;exitDy=0;entryX=0.5;entryY=0;entryDx=0;entryDy=0;" edge="1" parent="-EG4-MyawE5n80xoi_2L-332" source="-EG4-MyawE5n80xoi_2L-183" target="-EG4-MyawE5n80xoi_2L-187">
          <mxGeometry relative="1" as="geometry" />
        </mxCell>
        <mxCell id="-EG4-MyawE5n80xoi_2L-245" value="2" style="edgeLabel;html=1;align=center;verticalAlign=middle;resizable=0;points=[];fontSize=13;" vertex="1" connectable="0" parent="-EG4-MyawE5n80xoi_2L-193">
          <mxGeometry x="-0.3068" y="1" relative="1" as="geometry">
            <mxPoint x="-1" y="2" as="offset" />
          </mxGeometry>
        </mxCell>
        <mxCell id="-EG4-MyawE5n80xoi_2L-183" value="" style="ellipse;whiteSpace=wrap;html=1;aspect=fixed;fillColor=#f5f5f5;fontColor=#333333;strokeColor=#666666;" vertex="1" parent="-EG4-MyawE5n80xoi_2L-332">
          <mxGeometry x="20" y="60" width="20" height="20" as="geometry" />
        </mxCell>
        <mxCell id="-EG4-MyawE5n80xoi_2L-194" style="rounded=0;orthogonalLoop=1;jettySize=auto;html=1;exitX=0;exitY=1;exitDx=0;exitDy=0;entryX=0.5;entryY=0;entryDx=0;entryDy=0;" edge="1" parent="-EG4-MyawE5n80xoi_2L-332" source="-EG4-MyawE5n80xoi_2L-184" target="-EG4-MyawE5n80xoi_2L-188">
          <mxGeometry relative="1" as="geometry" />
        </mxCell>
        <mxCell id="-EG4-MyawE5n80xoi_2L-247" value="1" style="edgeLabel;html=1;align=center;verticalAlign=middle;resizable=0;points=[];fontSize=13;" vertex="1" connectable="0" parent="-EG4-MyawE5n80xoi_2L-194">
          <mxGeometry x="-0.1906" relative="1" as="geometry">
            <mxPoint as="offset" />
          </mxGeometry>
        </mxCell>
        <mxCell id="-EG4-MyawE5n80xoi_2L-195" style="rounded=0;orthogonalLoop=1;jettySize=auto;html=1;exitX=1;exitY=1;exitDx=0;exitDy=0;entryX=0.5;entryY=0;entryDx=0;entryDy=0;" edge="1" parent="-EG4-MyawE5n80xoi_2L-332" source="-EG4-MyawE5n80xoi_2L-184" target="-EG4-MyawE5n80xoi_2L-189">
          <mxGeometry relative="1" as="geometry" />
        </mxCell>
        <mxCell id="-EG4-MyawE5n80xoi_2L-248" value="3" style="edgeLabel;html=1;align=center;verticalAlign=middle;resizable=0;points=[];fontSize=13;" vertex="1" connectable="0" parent="-EG4-MyawE5n80xoi_2L-195">
          <mxGeometry x="-0.2014" relative="1" as="geometry">
            <mxPoint as="offset" />
          </mxGeometry>
        </mxCell>
        <mxCell id="-EG4-MyawE5n80xoi_2L-184" value="" style="ellipse;whiteSpace=wrap;html=1;aspect=fixed;fillColor=#f5f5f5;fontColor=#333333;strokeColor=#666666;" vertex="1" parent="-EG4-MyawE5n80xoi_2L-332">
          <mxGeometry x="100" y="60" width="20" height="20" as="geometry" />
        </mxCell>
        <mxCell id="-EG4-MyawE5n80xoi_2L-186" value="A" style="ellipse;whiteSpace=wrap;html=1;aspect=fixed;" vertex="1" parent="-EG4-MyawE5n80xoi_2L-332">
          <mxGeometry y="110" width="20" height="20" as="geometry" />
        </mxCell>
        <mxCell id="-EG4-MyawE5n80xoi_2L-187" value="B" style="ellipse;whiteSpace=wrap;html=1;aspect=fixed;" vertex="1" parent="-EG4-MyawE5n80xoi_2L-332">
          <mxGeometry x="40" y="110" width="20" height="20" as="geometry" />
        </mxCell>
        <mxCell id="-EG4-MyawE5n80xoi_2L-188" value="C" style="ellipse;whiteSpace=wrap;html=1;aspect=fixed;" vertex="1" parent="-EG4-MyawE5n80xoi_2L-332">
          <mxGeometry x="80" y="110" width="20" height="20" as="geometry" />
        </mxCell>
        <mxCell id="-EG4-MyawE5n80xoi_2L-224" style="rounded=0;orthogonalLoop=1;jettySize=auto;html=1;exitX=0;exitY=1;exitDx=0;exitDy=0;entryX=0.5;entryY=0;entryDx=0;entryDy=0;" edge="1" parent="-EG4-MyawE5n80xoi_2L-332" source="-EG4-MyawE5n80xoi_2L-189" target="-EG4-MyawE5n80xoi_2L-222">
          <mxGeometry relative="1" as="geometry" />
        </mxCell>
        <mxCell id="-EG4-MyawE5n80xoi_2L-249" value="1" style="edgeLabel;html=1;align=center;verticalAlign=middle;resizable=0;points=[];fontSize=13;" vertex="1" connectable="0" parent="-EG4-MyawE5n80xoi_2L-224">
          <mxGeometry x="-0.1448" relative="1" as="geometry">
            <mxPoint as="offset" />
          </mxGeometry>
        </mxCell>
        <mxCell id="-EG4-MyawE5n80xoi_2L-225" style="rounded=0;orthogonalLoop=1;jettySize=auto;html=1;exitX=1;exitY=1;exitDx=0;exitDy=0;entryX=0.5;entryY=0;entryDx=0;entryDy=0;" edge="1" parent="-EG4-MyawE5n80xoi_2L-332" source="-EG4-MyawE5n80xoi_2L-189" target="-EG4-MyawE5n80xoi_2L-223">
          <mxGeometry relative="1" as="geometry" />
        </mxCell>
        <mxCell id="-EG4-MyawE5n80xoi_2L-250" value="2" style="edgeLabel;html=1;align=center;verticalAlign=middle;resizable=0;points=[];fontSize=13;" vertex="1" connectable="0" parent="-EG4-MyawE5n80xoi_2L-225">
          <mxGeometry x="-0.2112" y="2" relative="1" as="geometry">
            <mxPoint as="offset" />
          </mxGeometry>
        </mxCell>
        <mxCell id="-EG4-MyawE5n80xoi_2L-189" value="" style="ellipse;whiteSpace=wrap;html=1;aspect=fixed;fillColor=#f5f5f5;fontColor=#333333;strokeColor=#666666;" vertex="1" parent="-EG4-MyawE5n80xoi_2L-332">
          <mxGeometry x="120" y="110" width="20" height="20" as="geometry" />
        </mxCell>
        <mxCell id="-EG4-MyawE5n80xoi_2L-222" value="D" style="ellipse;whiteSpace=wrap;html=1;aspect=fixed;" vertex="1" parent="-EG4-MyawE5n80xoi_2L-332">
          <mxGeometry x="100" y="160" width="20" height="20" as="geometry" />
        </mxCell>
        <mxCell id="-EG4-MyawE5n80xoi_2L-223" value="E" style="ellipse;whiteSpace=wrap;html=1;aspect=fixed;" vertex="1" parent="-EG4-MyawE5n80xoi_2L-332">
          <mxGeometry x="140" y="160" width="20" height="20" as="geometry" />
        </mxCell>
        <mxCell id="-EG4-MyawE5n80xoi_2L-364" value="&lt;span style=&quot;font-size: 15px;&quot;&gt;Length relative to tree weight&lt;/span&gt;" style="text;strokeColor=none;fillColor=none;align=left;verticalAlign=middle;spacingLeft=4;spacingRight=4;overflow=hidden;points=[[0,0.5],[1,0.5]];portConstraint=eastwest;rotatable=0;whiteSpace=wrap;html=1;" vertex="1" parent="1">
          <mxGeometry x="217.5" y="540" width="213" height="30" as="geometry" />
        </mxCell>
        <mxCell id="-EG4-MyawE5n80xoi_2L-374" value="List Item" style="text;strokeColor=none;fillColor=none;align=left;verticalAlign=middle;spacingLeft=4;spacingRight=4;overflow=hidden;points=[[0,0.5],[1,0.5]];portConstraint=eastwest;rotatable=0;whiteSpace=wrap;html=1;" vertex="1" parent="1">
          <mxGeometry x="270" y="620" width="80" height="30" as="geometry" />
        </mxCell>
        <mxCell id="-EG4-MyawE5n80xoi_2L-335" value="" style="shape=table;startSize=0;container=1;collapsible=0;childLayout=tableLayout;" vertex="1" parent="1">
          <mxGeometry x="32" y="585" width="590" height="66" as="geometry" />
        </mxCell>
        <mxCell id="-EG4-MyawE5n80xoi_2L-336" value="" style="shape=tableRow;horizontal=0;startSize=0;swimlaneHead=0;swimlaneBody=0;strokeColor=inherit;top=0;left=0;bottom=0;right=0;collapsible=0;dropTarget=0;fillColor=none;points=[[0,0.5],[1,0.5]];portConstraint=eastwest;" vertex="1" parent="-EG4-MyawE5n80xoi_2L-335">
          <mxGeometry width="590" height="20" as="geometry" />
        </mxCell>
        <mxCell id="-EG4-MyawE5n80xoi_2L-337" value="R1 | R2" style="shape=partialRectangle;html=1;whiteSpace=wrap;connectable=0;strokeColor=inherit;overflow=hidden;fillColor=none;top=0;left=0;bottom=0;right=0;pointerEvents=1;" vertex="1" parent="-EG4-MyawE5n80xoi_2L-336">
          <mxGeometry width="92" height="20" as="geometry">
            <mxRectangle width="92" height="20" as="alternateBounds" />
          </mxGeometry>
        </mxCell>
        <mxCell id="-EG4-MyawE5n80xoi_2L-338" value="A | BCDE" style="shape=partialRectangle;html=1;whiteSpace=wrap;connectable=0;strokeColor=inherit;overflow=hidden;fillColor=none;top=0;left=0;bottom=0;right=0;pointerEvents=1;" vertex="1" parent="-EG4-MyawE5n80xoi_2L-336">
          <mxGeometry x="92" width="68" height="20" as="geometry">
            <mxRectangle width="68" height="20" as="alternateBounds" />
          </mxGeometry>
        </mxCell>
        <mxCell id="-EG4-MyawE5n80xoi_2L-339" value="B | ACDE" style="shape=partialRectangle;html=1;whiteSpace=wrap;connectable=0;strokeColor=inherit;overflow=hidden;fillColor=none;top=0;left=0;bottom=0;right=0;pointerEvents=1;" vertex="1" parent="-EG4-MyawE5n80xoi_2L-336">
          <mxGeometry x="160" width="80" height="20" as="geometry">
            <mxRectangle width="80" height="20" as="alternateBounds" />
          </mxGeometry>
        </mxCell>
        <mxCell id="-EG4-MyawE5n80xoi_2L-340" value="AB | CDE" style="shape=partialRectangle;html=1;whiteSpace=wrap;connectable=0;strokeColor=inherit;overflow=hidden;fillColor=none;top=0;left=0;bottom=0;right=0;pointerEvents=1;" vertex="1" parent="-EG4-MyawE5n80xoi_2L-336">
          <mxGeometry x="240" width="80" height="20" as="geometry">
            <mxRectangle width="80" height="20" as="alternateBounds" />
          </mxGeometry>
        </mxCell>
        <mxCell id="-EG4-MyawE5n80xoi_2L-341" value="CDE | AB" style="shape=partialRectangle;html=1;whiteSpace=wrap;connectable=0;strokeColor=inherit;overflow=hidden;fillColor=none;top=0;left=0;bottom=0;right=0;pointerEvents=1;" vertex="1" parent="-EG4-MyawE5n80xoi_2L-336">
          <mxGeometry x="320" width="80" height="20" as="geometry">
            <mxRectangle width="80" height="20" as="alternateBounds" />
          </mxGeometry>
        </mxCell>
        <mxCell id="-EG4-MyawE5n80xoi_2L-342" value="CE | ABD" style="shape=partialRectangle;html=1;whiteSpace=wrap;connectable=0;strokeColor=inherit;overflow=hidden;fillColor=none;top=0;left=0;bottom=0;right=0;pointerEvents=1;" vertex="1" parent="-EG4-MyawE5n80xoi_2L-336">
          <mxGeometry x="400" width="80" height="20" as="geometry">
            <mxRectangle width="80" height="20" as="alternateBounds" />
          </mxGeometry>
        </mxCell>
        <mxCell id="-EG4-MyawE5n80xoi_2L-343" value="..." style="shape=partialRectangle;html=1;whiteSpace=wrap;connectable=0;strokeColor=inherit;overflow=hidden;fillColor=none;top=0;left=0;bottom=0;right=0;pointerEvents=1;" vertex="1" parent="-EG4-MyawE5n80xoi_2L-336">
          <mxGeometry x="480" width="30" height="20" as="geometry">
            <mxRectangle width="30" height="20" as="alternateBounds" />
          </mxGeometry>
        </mxCell>
        <mxCell id="-EG4-MyawE5n80xoi_2L-365" value="Total" style="shape=partialRectangle;html=1;whiteSpace=wrap;connectable=0;strokeColor=inherit;overflow=hidden;fillColor=none;top=0;left=0;bottom=0;right=0;pointerEvents=1;" vertex="1" parent="-EG4-MyawE5n80xoi_2L-336">
          <mxGeometry x="510" width="80" height="20" as="geometry">
            <mxRectangle width="80" height="20" as="alternateBounds" />
          </mxGeometry>
        </mxCell>
        <mxCell id="-EG4-MyawE5n80xoi_2L-344" value="" style="shape=tableRow;horizontal=0;startSize=0;swimlaneHead=0;swimlaneBody=0;strokeColor=inherit;top=0;left=0;bottom=0;right=0;collapsible=0;dropTarget=0;fillColor=none;points=[[0,0.5],[1,0.5]];portConstraint=eastwest;" vertex="1" parent="-EG4-MyawE5n80xoi_2L-335">
          <mxGeometry y="20" width="590" height="22" as="geometry" />
        </mxCell>
        <mxCell id="-EG4-MyawE5n80xoi_2L-345" value="b&lt;sub&gt;i&lt;/sub&gt; / 15" style="shape=partialRectangle;html=1;whiteSpace=wrap;connectable=0;strokeColor=inherit;overflow=hidden;fillColor=none;top=0;left=0;bottom=0;right=0;pointerEvents=1;" vertex="1" parent="-EG4-MyawE5n80xoi_2L-344">
          <mxGeometry width="92" height="22" as="geometry">
            <mxRectangle width="92" height="22" as="alternateBounds" />
          </mxGeometry>
        </mxCell>
        <mxCell id="-EG4-MyawE5n80xoi_2L-346" value="1 / 5" style="shape=partialRectangle;html=1;whiteSpace=wrap;connectable=0;strokeColor=inherit;overflow=hidden;fillColor=none;top=0;left=0;bottom=0;right=0;pointerEvents=1;" vertex="1" parent="-EG4-MyawE5n80xoi_2L-344">
          <mxGeometry x="92" width="68" height="22" as="geometry">
            <mxRectangle width="68" height="22" as="alternateBounds" />
          </mxGeometry>
        </mxCell>
        <mxCell id="-EG4-MyawE5n80xoi_2L-347" value="2 / 15" style="shape=partialRectangle;html=1;whiteSpace=wrap;connectable=0;strokeColor=inherit;overflow=hidden;fillColor=none;top=0;left=0;bottom=0;right=0;pointerEvents=1;" vertex="1" parent="-EG4-MyawE5n80xoi_2L-344">
          <mxGeometry x="160" width="80" height="22" as="geometry">
            <mxRectangle width="80" height="22" as="alternateBounds" />
          </mxGeometry>
        </mxCell>
        <mxCell id="-EG4-MyawE5n80xoi_2L-348" value="&lt;font color=&quot;#cc0000&quot;&gt;1 / 15&lt;/font&gt;" style="shape=partialRectangle;html=1;whiteSpace=wrap;connectable=0;strokeColor=inherit;overflow=hidden;fillColor=none;top=0;left=0;bottom=0;right=0;pointerEvents=1;" vertex="1" parent="-EG4-MyawE5n80xoi_2L-344">
          <mxGeometry x="240" width="80" height="22" as="geometry">
            <mxRectangle width="80" height="22" as="alternateBounds" />
          </mxGeometry>
        </mxCell>
        <mxCell id="-EG4-MyawE5n80xoi_2L-349" value="2 / 15" style="shape=partialRectangle;html=1;whiteSpace=wrap;connectable=0;strokeColor=inherit;overflow=hidden;fillColor=none;top=0;left=0;bottom=0;right=0;pointerEvents=1;" vertex="1" parent="-EG4-MyawE5n80xoi_2L-344">
          <mxGeometry x="320" width="80" height="22" as="geometry">
            <mxRectangle width="80" height="22" as="alternateBounds" />
          </mxGeometry>
        </mxCell>
        <mxCell id="-EG4-MyawE5n80xoi_2L-350" value="0" style="shape=partialRectangle;html=1;whiteSpace=wrap;connectable=0;strokeColor=inherit;overflow=hidden;fillColor=none;top=0;left=0;bottom=0;right=0;pointerEvents=1;" vertex="1" parent="-EG4-MyawE5n80xoi_2L-344">
          <mxGeometry x="400" width="80" height="22" as="geometry">
            <mxRectangle width="80" height="22" as="alternateBounds" />
          </mxGeometry>
        </mxCell>
        <mxCell id="-EG4-MyawE5n80xoi_2L-351" value="..." style="shape=partialRectangle;html=1;whiteSpace=wrap;connectable=0;strokeColor=inherit;overflow=hidden;fillColor=none;top=0;left=0;bottom=0;right=0;pointerEvents=1;" vertex="1" parent="-EG4-MyawE5n80xoi_2L-344">
          <mxGeometry x="480" width="30" height="22" as="geometry">
            <mxRectangle width="30" height="22" as="alternateBounds" />
          </mxGeometry>
        </mxCell>
        <mxCell id="-EG4-MyawE5n80xoi_2L-366" value="1" style="shape=partialRectangle;html=1;whiteSpace=wrap;connectable=0;strokeColor=inherit;overflow=hidden;fillColor=none;top=0;left=0;bottom=0;right=0;pointerEvents=1;" vertex="1" parent="-EG4-MyawE5n80xoi_2L-344">
          <mxGeometry x="510" width="80" height="22" as="geometry">
            <mxRectangle width="80" height="22" as="alternateBounds" />
          </mxGeometry>
        </mxCell>
        <mxCell id="-EG4-MyawE5n80xoi_2L-352" value="" style="shape=tableRow;horizontal=0;startSize=0;swimlaneHead=0;swimlaneBody=0;strokeColor=inherit;top=0;left=0;bottom=0;right=0;collapsible=0;dropTarget=0;fillColor=none;points=[[0,0.5],[1,0.5]];portConstraint=eastwest;" vertex="1" parent="-EG4-MyawE5n80xoi_2L-335">
          <mxGeometry y="42" width="590" height="24" as="geometry" />
        </mxCell>
        <mxCell id="-EG4-MyawE5n80xoi_2L-353" value="b&lt;sub&gt;i&lt;/sub&gt;&#39; / 30" style="shape=partialRectangle;html=1;whiteSpace=wrap;connectable=0;strokeColor=inherit;overflow=hidden;fillColor=none;top=0;left=0;bottom=0;right=0;pointerEvents=1;" vertex="1" parent="-EG4-MyawE5n80xoi_2L-352">
          <mxGeometry width="92" height="24" as="geometry">
            <mxRectangle width="92" height="24" as="alternateBounds" />
          </mxGeometry>
        </mxCell>
        <mxCell id="-EG4-MyawE5n80xoi_2L-354" value="1 / 5" style="shape=partialRectangle;html=1;whiteSpace=wrap;connectable=0;strokeColor=inherit;overflow=hidden;fillColor=none;top=0;left=0;bottom=0;right=0;pointerEvents=1;" vertex="1" parent="-EG4-MyawE5n80xoi_2L-352">
          <mxGeometry x="92" width="68" height="24" as="geometry">
            <mxRectangle width="68" height="24" as="alternateBounds" />
          </mxGeometry>
        </mxCell>
        <mxCell id="-EG4-MyawE5n80xoi_2L-355" value="2 / 15" style="shape=partialRectangle;html=1;whiteSpace=wrap;connectable=0;strokeColor=inherit;overflow=hidden;fillColor=none;top=0;left=0;bottom=0;right=0;pointerEvents=1;" vertex="1" parent="-EG4-MyawE5n80xoi_2L-352">
          <mxGeometry x="160" width="80" height="24" as="geometry">
            <mxRectangle width="80" height="24" as="alternateBounds" />
          </mxGeometry>
        </mxCell>
        <mxCell id="-EG4-MyawE5n80xoi_2L-356" value="&lt;span style=&quot;color: rgb(204, 0, 0);&quot;&gt;1 / 15&lt;/span&gt;" style="shape=partialRectangle;html=1;whiteSpace=wrap;connectable=0;strokeColor=inherit;overflow=hidden;fillColor=none;top=0;left=0;bottom=0;right=0;pointerEvents=1;" vertex="1" parent="-EG4-MyawE5n80xoi_2L-352">
          <mxGeometry x="240" width="80" height="24" as="geometry">
            <mxRectangle width="80" height="24" as="alternateBounds" />
          </mxGeometry>
        </mxCell>
        <mxCell id="-EG4-MyawE5n80xoi_2L-357" value="2 / 15" style="shape=partialRectangle;html=1;whiteSpace=wrap;connectable=0;strokeColor=inherit;overflow=hidden;fillColor=none;top=0;left=0;bottom=0;right=0;pointerEvents=1;" vertex="1" parent="-EG4-MyawE5n80xoi_2L-352">
          <mxGeometry x="320" width="80" height="24" as="geometry">
            <mxRectangle width="80" height="24" as="alternateBounds" />
          </mxGeometry>
        </mxCell>
        <mxCell id="-EG4-MyawE5n80xoi_2L-358" value="1 / 5" style="shape=partialRectangle;html=1;whiteSpace=wrap;connectable=0;strokeColor=inherit;overflow=hidden;fillColor=none;top=0;left=0;bottom=0;right=0;pointerEvents=1;" vertex="1" parent="-EG4-MyawE5n80xoi_2L-352">
          <mxGeometry x="400" width="80" height="24" as="geometry">
            <mxRectangle width="80" height="24" as="alternateBounds" />
          </mxGeometry>
        </mxCell>
        <mxCell id="-EG4-MyawE5n80xoi_2L-359" value="..." style="shape=partialRectangle;html=1;whiteSpace=wrap;connectable=0;strokeColor=inherit;overflow=hidden;fillColor=none;top=0;left=0;bottom=0;right=0;pointerEvents=1;" vertex="1" parent="-EG4-MyawE5n80xoi_2L-352">
          <mxGeometry x="480" width="30" height="24" as="geometry">
            <mxRectangle width="30" height="24" as="alternateBounds" />
          </mxGeometry>
        </mxCell>
        <mxCell id="-EG4-MyawE5n80xoi_2L-367" value="1" style="shape=partialRectangle;html=1;whiteSpace=wrap;connectable=0;strokeColor=inherit;overflow=hidden;fillColor=none;top=0;left=0;bottom=0;right=0;pointerEvents=1;" vertex="1" parent="-EG4-MyawE5n80xoi_2L-352">
          <mxGeometry x="510" width="80" height="24" as="geometry">
            <mxRectangle width="80" height="24" as="alternateBounds" />
          </mxGeometry>
        </mxCell>
        <mxCell id="-EG4-MyawE5n80xoi_2L-375" value="&lt;font style=&quot;font-size: 16px;&quot;&gt;2 / 25&lt;/font&gt;" style="text;html=1;align=center;verticalAlign=middle;whiteSpace=wrap;rounded=0;" vertex="1" parent="1">
          <mxGeometry x="381.5" y="685" width="49" height="30" as="geometry" />
        </mxCell>
        <mxCell id="-EG4-MyawE5n80xoi_2L-379" value="Classic BSD(T, T&#39;)&amp;nbsp;" style="text;html=1;align=center;verticalAlign=middle;whiteSpace=wrap;rounded=0;" vertex="1" parent="1">
          <mxGeometry x="20" y="427" width="120" height="30" as="geometry" />
        </mxCell>
        <mxCell id="-EG4-MyawE5n80xoi_2L-380" value="Scaled BSD(T, T&#39;)&amp;nbsp;" style="text;html=1;align=center;verticalAlign=middle;whiteSpace=wrap;rounded=0;" vertex="1" parent="1">
          <mxGeometry x="36" y="685" width="120" height="30" as="geometry" />
        </mxCell>
        <mxCell id="-EG4-MyawE5n80xoi_2L-382" value="" style="shape=image;verticalLabelPosition=bottom;labelBackgroundColor=default;verticalAlign=top;aspect=fixed;imageAspect=0;image=data:image/png,iVBORw0KGgoAAAANSUhEUgAAARwAAABeCAYAAADxE6szAAAAAXNSR0IArs4c6QAAAARnQU1BAACxjwv8YQUAAAAJcEhZcwAADsMAAA7DAcdvqGQAACw2SURBVHhe7Z0FeBRHG8f/l4u7OxI0aNAQKO6alkKR4lpcikOLS7HSIoUPdwhOCU5wjxUSCEECcZfLub7fXnLQAAFCcjkSur/n2QdudnO3uzPzn3femXmHQwxgYWFh0QF6mn9ZWFhYih1WcFhYWHQGKzgsLCw6gxUcFhYWncEKDgsLi85gBYeFhUVnsILDwsKiM1jBYWFh0Rms4LCwsOgM3QpOciCO+W3D7KH1UcvTC5MOP0Gq+N+JzrLnV7B54SB41awC776T8fuREPCEcs1ZFhaW0o5uBce+Njp0qY8KPECR/QQ7dp7Fo3Q+XkuKQTkf9OnVGfVrjMG8mRMxsFMNWJjqa86ysLCUdnQrOFwjmMlS8aTKFCyY0Bk2j7bB72YcsjRWDsfABMbCOCjbN0b1sq6wMzOCHoeTc46FhaX0o3MfjuBZMMQ1K6JB31EY6iKE/97zeJzHynkefgW1KtnCwsQArNSwsHxd6FxwYoIfoJqLLSwdWqLv6GYwCt+GY7fiwcuxcpLw4lZtVHeygIkhKzcsLF8bOhacFwi75YkqboygmBihgu8Q9HER4Niec3iUwVg5GeG4ZuQFJ3NTGOpcCllYWIob3Vbr5CgEuXvBmREUI8aA4Vo1wcDRzWEYfhwX7icjI/IfpNb1gJ2ZMQw0f8LCwvL1oFPBEbwMgbi2C6wYQckZe+IYoWLHH9HDKQ579l7E8av+8KxoA3NjVm5YviJIDkHCZcxv6YX20y4iUZP8X0SnghMT8gCeLjYwM/pXULj2rdB7YB3oBS7G7BUucLY0h4na/PmqScD5ecMw6Mc+6NO9OSrPPIsUETvfqHShgkzwBId/ZvKwdy/0+KEjGiy7A5nmbF5ILkFGyEmsCYpFeLoICk36fxEdCo7af1M1139jnEdQ9IxQu+dAfMukKZo2QRVHcxh/9f4bRzSbsBSLfnTHtRshKFPGHsbcr/6hvzL0YGBaAR2nLcH0Lma4ePUfVPBwyscVQJBLM/Hwwh4ojGqgTx8fuGjO/BfRQSkX4MnFrVgxfhR+ubgfa9fvxoVHmcg7gdjAoSMGjPdGy4614GJmBK4m/etFH6Z2ThClhEEiKYemVSvAgPv1P/XXBkfPECbWthAmPgapKqGZZ9n3p3KQAjLeQ1w7p4Rp874Y6OOQ6074j6IDwTFFhW9+wIhfdyIg8CK2zB2JdpWtYJL3resZw2vIZmwd6IOylv8V/006nt15AKXcG7UrG0Of1ZtSiIrJv2Q8u/uEyb/GqFUpHylRyCCOCMWpdBd0+qEdalj8ty1ZHTy9HgxNrWDj6Iay5crCxcEG5kZ60HunKTAwd4CjBVPx3j3xtcJ/jLvnxJD7tkItWwNw/yOP/VVBSsjTH+PeNQ70e7RCTTNNeh4UcgkiHgYgo/r3GNbZAwb/8XxmHQdfiqhwnOMrUcunGhwNuJDz+ZCyO/aULpQKSF+EI0ChjwaNPWEDgpTJx38dx0x3SvwIIWefoknf3qhnxa4LZAXnC/E0xB/RCinKCW5i8bxduBR8EztHdcOYXUHIlCk1V7GUZJRyKZ6EnkYSyeCQGIC5v+5GwP2L2PTT95h27ClkakGKe4Gbqd9haPfqMGetWFZwvgzpeHo7BDKFFXjcGhg5/ju0aNQcvfs1R8T8MVh/PROS//LYaalAxXSXkph8fAA5HCGzrIMxk7qjRcNm6NaxGu7MHI3N/xDMKjXHhOVj0cKJXRuohhWcLwE/Itd/03g6Zgz2QQU3W5ibmMG6sgecsiKx9kwIsuWs4pRocvw3TD5eMYBZh1mY2c8LrvaWMDO3gI2HG0wTwrDuwiOQaXn4tKoKS7am5cC+hi9BVBjOCRSo1ak56tib/etIVHChzxRk3osE8FQqvPHo8MPw996DuJMoh5J185QMmO6S7EU4LqsM4d25BWpaGuZaMOr8UXLBVcqR9SIRfA4Xhkb6rHWjoeiCk3kdi9UVp1IlVNLJMQb7wtMgUml+vxTyNNQfrxTmaFGnAkzyjIfzXwbjqkoJhZUp9PPEAeI/OId9F0OQJlX+K0IsXxS1/yYi9AyS9R3Qqk75N3NriBGadCYfr6vzj8lHdpHO23CIQfP/wqGMh/+kXhi7+z5isnO7AfXGrsXCXo3galG41y3PjEV0ajLinoYg+MoNXL/zFAkSpnXPOWuGTn+ex7ahjeBiXhq9/um4MK4mftjaFluebET3cuZvLJwHG+uh+dQHqLHoHs6OrQcro9z2QCXORHK2Epa2djBlLmZbyy+NCjL+MxwZ4Y0xAUNx7OUatDbPPSMXpeHqqgboulqITuvu4djACrmtOskhSX2AcwGxKNu+O+rZ5Vz+30MtOEVDQaLEAFrQpTzZGeU0wGTs8QOtuxpDmRIlKZWffyhkEhKLBZTNS6eUhFiKjgikU5sXUM+aNmSqz3x/w0V0LjaLpJo7KF3Ekl8fWzJvt47uZ0mYt/eaSNreyZZ5vm7016NMkio1ySwlECWJs0JofScLsu15gKJUmmSSkyj9Bi33NiUrh6F0KFGuSSdSSfkU7b+Aeo9cRFeSNYmlEKVMQPFPLtKh7dtp+87ddODkFYrIKHhN1ILgMKiklHJ1FXX3cCATdS+Wa0p2rRaT/6sMkmguKRIqBUkEWZQcG0wHZ3YlT4fqNOXIU0oXv8npUkQSHe1vSxbfbqbwbAlTdHORBq0ib3sTar30CiUJFaR+MunDffTrlsO0dUw7mnn6FYnlpfF5v0aUJOGF0SZfS7IbeIzJ0VxU6sp4dgZVt7OjnpsfkjBvo6FSkkyQRgnJ6ST6t5UpVcj4SRR6ehEt8AuihMxMSo2LpIvrfqJu3/xIv99+/RY+jnacxhxD2DcegWmTm8HFkZEcpQjpt1Zh5fariMmQFN3vwOHCyMwKju5e8J2xFbt/a4K7F+4jmifSdLM+jEymtuI0H0oE9qjVsgn007KRoWIEX50kC8O+FWuh/92fWDnMG/YmXHD4t5n3x0H3LrVhlhmM7dciwVeUYsfVV4Ue9A1cUKu5NygxAxnqJFJAknkffn8dgPPg/+G3H6vBNG/t4ujBwMyOqR+2YLK3xMG0cJAJ8lvrroHE4MXex9+/PwXX0RFO1tawcykPr7bfopHFFeyYdRDBQs21H0E7gsPAMbRE/cHzsaBHDbha6DOVKAt31s7CuotRSBVpq8ZzYWLthLq95+Bn23MIecGD8IPvKAn318zCnvuvIJCXpIrKhUfvhVhd7TT8TgThYfAJrJg4H/carcO6BX1Qy8Ekd5kDT4zy37WGpzwc565I0KmBJ8z0tZZdLEWEa2yFWn1nYb7rAWw5FIx/7vhh5ZyNiO66ExvndIGHWa5/keRipAXuwpz1e7B1cncsuZ6ek17SUIrS8OjCCsz2e5JviI2caQCiZERG38PJq6/AY5LUi1fNbN1QpmIG0hOv4HlBAv1oLB0tISfho300uqErMZrDqAyXLKr2o403EyhbprlEKyhJFH2P7rxIIZEsP2eHlB7tH0njt12gZ4zaKUtcT4R5TykxFBObTCnJcRQXH0tJWRJ6q8ckFxJfoqQnO7uQk/tw8osRvn2e5YujUkooOymaol/nY0I8pfBlb7rJaldDdtxlWjzVj0Kj7tCGHs5UeWlgifQ9qpQyyoq5T/tWDKHxB5/nc49KkksyKeFVZE6dyu0VKpnnu0PrellT+Saz6UpGTuJH0bLgMDAVJeHMbPIpa0OMxuf4cyr1+YtuxmeTdjVHRhK5glT5VEL+/dXUecQ6OhOVTpKSpzZvUGmc5B++w4e0yduOvGadpWRRDAXeiiChnPUmlzQ+mI8KCYmiLtGBa/GUGvI/6uXuTBMv8j6S318WlYJP8WEHaWnfUXQw4kOyqHpz/ypJOkWemkedKjek0fsiSFyAoql9G13fFM6tJmDx+OZwczDO8ee8/Hsu5u66gcQsqeYiLaBnACN9Lt7btkr2ADvmXUbtFi1R38kKhiV49TlHTw96zPHBO3x6C9ueVUNf34YwCduLba+YtBLlj2JR88F85BrC2L0xOtU2RMSVQ7hlOQBdvS1K7LQGDtcMjuUao00bY2xZexpRmvS30UzLUImR/uIqDu67h2pMV3Lhd5UKFDivWJwCHGNHNB08HeO+cYF9juak4dbKldhxNRaZkuKtMUmXd2CLYVO0bOIOa7XzVZNeKjF3RnVHU2S/9Mfig+UxoG1ZRmRZP07pgamcBgbQlz/Arb2PUWFwd3gbxSHk3rP8/SRfHA70ze1Rvok3fF6swKE7H/ACy0VICT2PDeuvwm3sH5jd0wv2Bdwht5hKLwdGdg0wcv58dHNzgXpOlDTzDv5YsQnXYtNRfJrzAtf2nIWjT3142pqW/tgjTu2w4vxGDG/eEZOnd0OD1w5lltKDQgbRkyAcTqyD/h2rQBJ8AHviDEvuDGSOCczta6NqbQEOHbmJZE3yG9RiE34N247EotnPc/CDd2WYSVMQeGAJrqdorvkIxddccgxhWaMHfp77Laq6WIALKbKCt2L2olMITxZ8cji7ULwIxIl7NmhUtRIsjb+C1bk5Jq4Hyrk4wtnZHIbstselDw4X+pZOqGIDxEZcwIYzlTGovVsJLpscmJjZoVatb5AaEIDwTE2yGrXYPLiIDX+ehFHDKtBPe4WI0Lu4eeM6As4yRoaF5rqPofHlFBtywUs6PsWb3K24aruGuGZVqN+mW5Sg3WGrHJLOTaLKzsNp5z8pb0+6YmH5YqhIKeVRQtQLiopPoeQUAf07/7iEIs2i6HO/Udfy9ej3EI3zWCmklLD9NLm+M1mbWZKjmzu5u+cerhW8qMGgQxRdAG940ddSfRIVxEmXse6nYVh5IQZpEi7MHFril107MKp1GVgbaS7TAmHbaqPz5q7YcHg6OpS1hha/moWliBBUKqZLURpC6JIIqeHHsLz9fCSsOY/9fSoyiSooJHykJSRDs2TyXzj6MLRwhDtjhX/Kk6MDD6QeTJyaYcj0cWjibA9jpjMlTL2JlSt34Hpcphb9ORmID+ND7mgPe0P9/8DODyylC07pEBs1HD3oGZmCLJWIEL52HOtB39gKzhWqoEqVd47KFVC+AGKjRgcWTi4k4+HBgUnoMfMwopKYhzCyQZMJO7BrRgdUtDPWQp82Ff6jvDE8aRJObhqGBswLyE904uPjkZSUBKWSDeNZGPT19VG3bl1wCuBPkmZn4/MmQnCY7zWEhcXHbVN1kVXnY0JCgiaF5XMxNjZG7dq1NZ/eRQFezE1sGjUA26tvw91V7WGjOVNUdCY4ahTCMOz7eTBm7n+AJIESjt024OTGAWjgZqGFvXoKJjh+fn7w9/eHWCzWpLB8Dubm5ti+fXvOvJOPknof/1v5J67Haz4XBKZlta70PcbP6g7Pj2iOurE4dOgQjh49qklh+VxcXV2xdu1azad3USA77g62jOuLzWU249a6zrDXnCkqOhUc9YMIw3fjp29n44ppR8z6ay76+ZSHtcFHJr8VmIIJDo/HA5/Pz2klWT4ftdC4ublpPn0EhQjpqWlvbXj4SRiriWtoBXtHS3xst2d13mUz1pP6YCkcakvVxeVDe4DKGcG5ji0Th2BLjb24v7A5LDVnioqOBScF15cOxU/+bhi95Gf0bVIJ9kbampzHw9XZdfFj5ET4bRiGxgXsU7KwsLyLBBmRp/Bbh+nwn3EM4aPras3ZqwOn8WuECNu1GDOOcdF90lj09Nam2KixgF35SuAGZiBdrCieeT6FQPbsEvz2r8Sk7nVRu+Zg7H0sgCzP4vXEu35YPa4t6tRqih+n/IY9N+MhU7DWV4lCKQM/7G9s2zIPIzvURgOfyTiTZ2W0Si7Bi4v/w9xBTVG7TluMmP8XToTmBK0onaiUkPGzkSU3gI+bi1ZFQkeCI0PkkV8wdkUoagycgmFtPeFsqu1lB3rw8GwIA8VzJCRKoSghmx4YlG2EDs08gadZSI84imW77iBTonizJMq+dgcM7OYFQfMRmDJ2ILrUdYQBO524ZKFnALNK36BDowqQPExATNgh/LYv5M3yBD19Q7g36Iw+vvUgaTUKM0f1QitPK83ZUohcBkliHKKM7FHPw0GTqB10IjgpN/7A7KUXYew7FuN71Ed5a8P3tvrVBmbVm6Gb0V1ExWdBWkKsBI6RBayzEvCq73IsHG6PxN2bce6lGK9D9BiYWkMhiEWHTq1RtYwLbM0M3l+QyvJlYTJEz8AUFiIeUoauwsKehPBNm3HxtZWjDq5lYgGuPAWdO7dDBWd7WJXEKFsFRCkTIzH2OaIdO8DLQ7vPUeyCI4s8iqUztyG+7gjMGdYO1VxMwS2mX+XY1kfrDkrcePgImWJZiVlY/Sz0NKr6NIfvTz+jsfQafve7iyzpaysnHf9cMkHTStYwZC2bEotSIUNU+AXUafctvh08EtWS/LHiSKjGylExRkEmIq6ZoXk1Sy1b7rpGBYkwCRGPAmHXqSW88tkvvSgUr+Ck3MCfs5fikll3TBrfEw08bIo3XISeHZr3HQGry8GIyBBCViIUJxFPb7ujUQUzWNboi1F9rRC7dQvORmmsHFkUghIbo7qTQbEJMUtRUUHJWC8v75VD0xpWsPXqi+FdVQhfq7Fy1NHwxLF4kPINajuX8kZDIUTWs2DcuFkPI3p5w0LLj1N8RVweiaPLZmFbQh0Mnz0M7aq7wFSrNUoGIaMoqrdERQ/WjQZhdMObOHk7CjxRCXDkCF7gnsgbFW0MoG9khzY/TUBj8VXGyrmXY+UgMgTn69WEmzE7O7rEohYUfjSCJE1QzU4Phpbu6DhiJDwTT+VaOUo5ZK/CcbmhF8qV6qFRgpSfjLDA88jyHYnvKpto3VorpmHxFNxcNQYTd2aj3ZwVGOdbC65mXK2qW/LFOThkOhr96rvB1jjva1FBFHkA0yaHosXiWeha2w7vherIuIJ5PX+Ff3ImJJqkIlFxHLbtHowG1ibvD8WHrUbn897YNcYHDqYGjBCn4tTEJhh0ohH+ur4JTf4ZgRWmq7C8nSvMSn08DR3CiIAswR+T2s/GNU1SkdAzglmd6di3pw8qa5LeoBCDF/wnet9uj1OT68GAKWPSjKfYP6YNpoX+gH1XFsDj+mhsdPgf1rQpyJJp3aAQpeLh0V8wZ4cYvf7aiiGehpozH0DGQ9ydQ5izjY8BK8agjbM2VgC8TTEIjhxPj83AsBUv4D1yGsZ190ZZa0OtxnGRRZ3Ar6PvoM6qKfCt4Qizd5VMKUTMhc1YeMwE/ef1QxM3Cxjm/X1lOi4v7Yu+q64hxXUA1q0biWYu/25I91FkAmQkRiM8xB9Hdx7C9ZcSyPSrYsmZm5jU3P49cXu2uxs2u27BvBZOMM/5AYLo1m/o2GUN9H9ZjyGPToI7YyN6VrFkupu5f1Nc8IN2YN7GG8hQqpD2Uooft+xG78pMV07bpUonEJTieJyY3gk9/4qEUf1J2LV5MGp9ok7lQiBJNlLiniP0znEc3nkcd5O4MHXwxh+Xb2NETc1lGpQSHsL29sVBz+P4rWnuFGiSC5Bweh66DvSD+5K1GPD4NPTnbMX37sX7MlVSAeJu7sTyPUHIlhPkEiv0/2MtupbRXPAGBQRJgdgxsAsWRvhgxqnjmFrnI9O3SYqs6Ds4vPwsTEfMRI+6NnirHdcWasHRJsk3VlLP+q1p5JorFJkiIYWWA7gKXhynWd1qUpPJBylSHSBdk/4uKnEGRd06TGsO3adkgfSdOLIqEmdcoWXtHMnSwp5qTz5Gz7L+3SPqo6iUJJeKiJ+ZSDHPA+ncup+oVTlzqjH7LMULZO/8TiKdHjWajj7nkSTvl0tiyG9oRbJzcyOX5ivoXoY4z4Z4xYdCmEaxr27T2i42ZGY4ms7z5AV75pKKSk68uOM0pSaH9CzLUtPFtyhbc+qTKBUkkwiJlx5HUY+u0eHFvamBmw01WhX8TgBxJUn5T+nY8DF0KkWTpEalIHFKCG3obk8mrlWoxvfb6Jku4k4w5U+anUARQUdpbjMnKltpHt3JL/ywnE8Jt9dSW1t7KtNvGz3ifawiqkjCS6D7R9aRf3AS8YvxObQqOMk3VlMfnzrUacZ+Co3lk1bjfQte0LWNk6lb3QpkZ1yZJhyM/ORGeCppNqVmCpn7yO86CWXe30T9PW3I3KYmDd8dSpniz6326sxPpmcnfqFWFebQBeaZZXl/ih9AMwfsoND3BEVJghtLqJGlCVWdeY5SRDqMkJJ9labZGZJ+zwMULcvdcK80o1IyFevSUmpvp0cmzo1pxvkEzZnPgBEuUdpLCt45mZpWXEJBeSuwSkaChNM0pf9eevZOeVbJsinm2GSqamZDTVYHaXeTgI+hFFP6o/001MGRyo47S6ma5LzI+Ul0e21XcnCqQ+P/Tni7XOaDSiEjYVYaCYq5KGpNcGSRx2hyM0/yGbKaAiJTSVpE00YqEFB69GO6d8mPVv7chzrWrUYejpZkxNUjTr2ZdOp5BkmKWluYAhO6dQBVszEnK5f+tDs4nT5bcxhU4nS6u2YAzTgTQ9lS9U0l0t1Da2j2dz7kbNuRxi06QPeS39kGRhJNBxgrZ/SJVyT4VGnQJqHrqKaRATX48wGJtG1+fhFUpBQm07Xl7cmOY0yOlSdQYTRHvf2HLCOaAn7rS7Ou8pkE9bYoURSwZQGNa1uPnJ260y8bTlO4+tRr1FZOcghtGViFfg4osG1VdKQ8ivX/larYuZPvnhf5WKkKEiQH0aZeruTaaRldyyw5dqx2fDgpN7F63GT8cfoVjOt7o245e5gWxjGQFYfw6FRI5EowBSBn7oNUIgaflwm+QAKmwubMXak35zSOTG2bM4GwqN1M9ejDqV+6YOS2WBi2WAS/XcPQ2N7ss9dhyVODcD3GFU1rO8PIQAlhZgayMnjgSfVhaWMNGwcbmOprIt7noIIwKQoC8/JwMNMvlomQ+RG5rT3qj47FlEuB+LWpOb6KmOxMERanPcb+CS0w4ggHlXqvhf/evqiiOV1gSAFRUjBuJ1ZA23oOzNdKIUhn8jEzG3yFEaztbWBjZwWTPO+MMXMgSImB2LIiHE11k4mM9YLr63qizwYjzPU/h/F134mQrBIh7dEhzPadC9GiC9jaz7N4/DGFIUd2ioLsJR37uQVVszMgLodLBiYmZGpmRmaFOZiWV4/DUWvKR442tPRqNPG0tiucioRxp2h+G3uysHSgjisv5uOLKQCM6S0Sy/PdJ6vkkEYnB1uTIXcInUxWb9gmZSwyzanSDvP+M57sprE1OaRv7UF9d4YVasM59YZw6nwsuShJmBJKm3ztyancTLqazVh4Kinx8zysUpRGYX4TqXKdcfR3os46egWi6BYO0wqkPI1AbJb4rUWJxYc9Ktcun7MEQGuNM0mQdGE5+vdfjUA0wKSDezG1uQssvrZhav51zKzYHqvLDsdv3a2gqN4ejXADe/z1MWjeNDQrk88+X6UIkvMQdXQOvvtxE+LK+WLhqYMYX7NAw1alB5UEGU9OYHqzn3Ci1lD80s0eqNgQlYX3cD7EEQOnj0RNg2cIWNMdOx13Y8vY+rAuSVZsjuwUkZydBxUKUujkKJ7+qNoPc+/Pb8nRypJsvUbSoYjMt0eWvgb+yfXfcBqNIL87ryg+PZuyM5/Q9oHOVHHIYXol/9guoKUBFcmzYun8XB/icC2oTPNZdDVNc+prQcqjOP9fqbyRBTl2mUln/omnpMxMSnx2mVb286Qm0y9QvIRH0aEn6E7cu6OzXx6tOY2/BmRZgbSxX1WyNreimsP30oNM3QxX64rIre3IzMCTBh18QhlvRvgUdGuxERlY+dL+l/J89mHPpgcn99Kh+yklvLuoQaUgQWIALW5nR3omTtRkxgUqjA+5pCLLTqSApd+QtWNzmnYuhpjefw7ijGfkN9mMnKr/RKcTVaSQiUlaAhvMr8FlqDUMrLzw46xZ6OKuh1dHpmPp8SfIFn8tsY/T8eRmIOSqxvBtUR5Wb0LqcaGvDjwsCEBMoirHUfYWsljcO3YOQeny98+VRDhcmDr6YPj8OWhjmoLQneOx+HSe4DWlGhXk0iQ8uxcJI+PG6NDYHWYafzGHqcpciQgK3i0kpHLANTAu9omkhYEVnLcwgGXVHli8fAi8uDycm7MZl+IFkJaKmvYJ+I9x+4wYqjbNUNNGP4+v5inCbqotXTfo5TeyaFAB3y9cgknfOOhsJK2ocPRM4FCvP1av7g/3lJc4MmUjrgs0J0szKhmkqZEIus2BQSsfeL5ZWSmHVBKFJ4H6zMM741Phpr8krOC8i745yrXohJaVXNF0RFc0dDAp/VsGq4l7iDPZKnh1qAs3bp4Y0ukRuBFCUNm0hqeHetcETfprOMawK1sWLhYldnPafOBAz8gGldr6om0lRzQZ7Yu6JppTpRmlDKK4x7ihNETdVrXg9DqvmHRJ0nPcf2wCQ4cmqFhWk/4GFaTCRASdPoazYXm30tQ9xSA4csTfP49j5/9BCl+qNTNcGHUDJ+6+ZLo4xb0CPBnX1v2O8BbTMW/4N3BnKpo2XpIs6T5O+p3HI74MSm29FMEzXDx4G7HqeUuapA+SkYpXRPCuWeGtECH80Ks4LVKh0vDv0cxa782zJtxehSXbz+LEigEYtuIGUt5ell/CIaYORuPimjWI7v0HVg/2goUWluKTSg7+q5s4djgAz1+H+ysqpIAk5TECjgW+v4/3u6hUUGSlI8VQH/U9y76ZK6aSSZAadhs3DM1RrV9nNFRv5p8X9W9kvMC9M9cRzvuyLoJiEJxkPPI/gdtPkiF8HdausAgjEbBjDZYsmYupM8Zg+uUwpKlDOhQbMkT4zcfi580xdJgvarlZQl9L/Qj+43M4fPsleLJ8/CSfhQCPzvyFZfMW49cpUzF6+h1ES5VMG/YJ9E2hYFp+J6O8e64n4vKeA+BVHIAFoxrDUjMLUBa5E8uCaqJ3Fx/UcMjG0dX7EZyaO+myNKCS8xG86xcsS+2D2RM7w8NKO9YZKWRIe3gaR+4lFHEDR/Wiy2TcP7IGC+cswOypczFt6cNPCw6Tc8RlTDXGDLU3fP1MSoj5L3D91BUY1umPaf3r4L35hxwDmDvVQa+Z0zCorrUm8QuhcR5rESnx4qMpLiWbpEUdwlaKKSslgeLiHtKuIeXIca4fRaaLNSe1T9KVxdT5+5m05X4MZWl5iFienUAvY9VrVVRF/F4FiTKTKD42jv7Z3J3MjBdTQLb006NpmefoJzcjGuefTDJNtiScn0oNK3Wi+aefU3aeZQ5xAXvofAw/Z+FtyEJb4nouotuS0jFkrlJI6cXfU6lp17l0+HmWdtc3qZQkyYqjl3EZ9IllfJ9EPcGQn55A0U/D6NzS78jRfT0Fa859EKWIUsN20DDPsjTvhiAnSSFKo+A9Y6hJg/609nociUp4JhWDhWMIS9eycHOwgGFRA27pGcPKwQVubi6wM9Ev1jAKsgg/zJ8aikb9B6FbLbec1l6bP6dv4YLy7nYwe2t5Q2HgwsTaCa7ubnC2NXrf5/IhrJpi9ppxeLV3D648foxb+6dgym5TDNu8AWNbeTBdjn+/yKFhVzRzM2fedySCA7Jh69sItQyKet86QKUAP3gn5kx9ge9mjkPnClbQqueJowcjKzeUdyt66AaOHmN12DJl290FjgW1wJj6YF2+LcZM64nHu3fjysNAXNi7BH/e8MDYDcsxsJErTPLcl0KShSdX/sCKLYexf8VYzNgSgi/rwWGeW606mv8XkVQEbj6MWCs+Au46off479DIwzpnQzO5UAgp0/8s2A8ZwMzM6J19mNNweqwPRjgsxdUJvqhia6xJ1xKyJ9g6chQCKk7B4jHt4cFU5M/uST0/hUXB7pj0bS1YGGt617Ln+Hv9cUirOOH+9oeoO2c2etSxgVFO5ZZBIJAyFmbupZ+E6Z+bMy8z720lH+2LSgNq4mTyNLSwMPxkxEASpeJlkoj5KhPoCbMggjUc3R1g+SGveMJJDKraA/Kd0dj7vVsJH6VSQZ4djLX9RyGo1Xr8NbYxbD53krFSBvETfyx/XBXzf6jxOhEy3iOc3OgPeVVXhO57hma/zYNvJfWXq0f31PlYQIcO0zpw1PmY576U4nQ83DEaHZe1wNnYsainSf8g6sBjgjTEpUlhZMp8kUgAGdcGjq7qxkxzDQNjUiMh/Dg2hJTDsNYueHV4BkYf8sL2iwvQVFv79hYCrQnOq9MLEKBqjxbmwfhpwk10+/M3DG6m3lUzC+Fnr+BRGr+Aw8s2qN25FarbmecJmlWcgpOMa0uH449sX8wc0wv13Qvjt8nArV/64mqTbZjY1o0pUOq/z8DNZX8itml/tKyegJ21BuD4JD+cH+8NGxMuo0WXcOx+YoH3oDKs0h49Gjq9tYXM5wpOLgSlUu3x4YD7CQuUf206yrcJwrIn5zCCqWAlV2/UTuJXODNnIDYaT8Taqb6oZPW5akNQiKJx+ddhCPn2FGY2N81Jk4vicX3V/5DRZTga24RifYOJuLvqEq4OrczUfRn4ERdxIiQ99ys+hb4RrKq3w7d1bDUJhRCcN6iYfFSXHT0mH9/PGYWYj5jAi4ir0gnehok4t7Q1JjycCf8zo1D7c1cmaxO14BQdAYX5n6GwhGQK3tydPFv/Qscep2r6uXISZqZTWmoKpaQU5MgggfzdOC2p5D+mIrnM07YPR0oRfqOp7aCldPxJciHDNfDp8f5x1LrlTDody6ec6BQ5yQ/oxKm7lMyXkSrRn36ys6Q+Ox9Ttmb6p0qcxbyT1HyeP/8jTf0979xe0pE+ZG5SQB9OIQhd4kT6DX+nB+KS7b9RyrMpcHMf8hnwJ91IERbiXlWkkCbRnb8GU7M2i+i28HWynKTpQXTsVBBlSaSUHbaT+lra0sjTmgg0TIYohBn55ld+R2pqGmW8E3BG7YMJ2fBDwXw4n4F6uZGUz2PqoJR4sedpaTs3arDyNhWfB7RgaElwlCTOFpKUd5tWNK9CbWceo4hUsRYLafEITtLVJdS1x0z6391oyiyEk1ia/g8d+eV7quthQ9Wn/k2x/DxrVxQiylJHGmQKJf/mPPKwbkd/BBUu3s6HKF7BiaQtLfXJYdYlEuYbwKxkoA4cFXVqGjXt+isdepb5+SvEVQrix12nrWNaU+XyzuSz9E6eSqliNEfI5CMj9jIBvToxkVxtvqU90dp728UlOG+QCyjp9l/0Y3kPmnQhv1BdukWLPhwg68Y8dB4Uhs4bl2OERwZSrWqgor0Ykedu4WmWEAXb194Rdbt9g8qWpnkcftrvUsmeHMLkgeuR0XkU+repCEemm1OgLoMgGS8eh+POtWu4FRmFpJgYJGa5YsKJq1jY8XV36m3Cf/dE8109sP/iHLR1NM2ZPyF4fA5nH2ZAVsBJOYaV2+C7+troUn0Y2dMLOBqkQt3v26NqzE60b7AWDU5ex5KWliXTf5PjJN6O4X23wnDsAoz4xgGmBRmnIBVUvHhEPHiA20w+3nkeg7T4BGRSTcy9cAOzfN4vXwox00Ve6oXuFyfj0s2fUZ/JRPUweXrYWZx/XMBpzOoulWdrdPXSRpeqYKjEaXh0dAG6/5qJZTd24Qf3L7s3iBYFJwt3FnVE/6d9sW1RF8j3nINe317wqWADpCYhXSRHwdwVZnAsYw8zg7wCkIATg5thdNlluDZJC4IjC8am3kOx6OwzSOycYG3yGQGw1LM6RSLws7ORLZHlOn0rTsbJKwvR0T2v3+k1z7HHtxF+qbwFtxd2g6t6Z00mVSlKRmyKCIwBlHvZJzB2cIez+ds7lsYe6IbqQxvhZMp0rQjOy33d0Wq/F/63qBGC12zGS5/xWDy4FZzMCvpydIkKiuxrWN6uH5YFZsKkjDusC+y2YSx7RizEQiGymXwUqOd26RnDot5cXLgxC+/rjRISXhA2de+Av1qewsO5zZBzCSNcMmEy4lLEOVd9Co6eOlC7G/M+/3WiKEVpCNo8EL6ruxSL4EgzX+L8ig6Y8GQOLh0ehEpf0n/DoEXBESN86xAMCW6AEeWZlrvi9/BtVxvuVkwlUbcommh9nyaPM1P4FJcvPURyXBj+XrUep4xaYOzYTqhuWwVNmUpczsL4syPz5UACJD17hVSxQjuzfo2dUbGSI8zzG0pPOoMxDX6EcGUg1veoBIs3ivTaeVswONzX2+yoJ/6dRlhWCh4eWoDVp53Qc95UdChviAoteqOxe+GnD0jTn+FhtAquriaQCGQwdiwDN8uPRPr/wpCSh/iIl0jTxlxQjh64pq6oXNk+V0zyoo7qF3EQo1pPhvXeF1jfLu/kudfO24Khx+QjR+2MlqQh7Pw5PEx5hcCDq7EzuDoGzB2LVmVNUbFZdzRw0vxBkZAjO/4qNgwZgmMdj+H2z97anSZQCLQoOMSoaSyiM5UwYyqVvpUL7MyMihbCUikGjyeETCpGdlomU9VMYGNvCWN9Y1jaWsAo75qgEorg1nx4db2FiQGHMNLLBsZFtmiVEGVmQqiQQ8yITqaQC3N7R1gYcWBsaZ/zb1HeCSlzZy3/K3AsJBch9sxsNB7yCiseHEe/MkUvdeplEsKsTIjkMoiy0sCTGsHSjsk/Yz0mH+1gXkhlUN9rZsQNXH5pivptvWB4ZwtGjApAmwNHMaXhl19QplUfTg6MNUPq+QYlXgqKiyQ8OHUDUY7foHM9c9xb6I3BTyfh+MbBqMV0BdlKXBpgumuyOIT430VShTboVFkI/9nNMC17Fa5t+QFuX7hb8jHU8Y7v7RmHCbcbYtEIDwTuOQ1xizGY8UMjaHv6WmHQvuD81xHcxhLfhYj+cQoG6J/Gygsm6DVjIr6v6VS4wPIsuocUECdcwPyef0A4fg568f3w201XjF44EZ09LIrsKytOSCkHP/UlniUDTo5GkIkJpo5ucC6syaRlWMHRNko+4sOfItPSCTZKAfh6tnAvaw8zLS+VYClOCCpZFuLCXyDb1hW2imzwDRxQtqzdW0sHSjIqpmusrti5PqOSAys4xQEpkesP/vRsXpYSjIrJx5zakf9sXpbPhxUcFhYWncE2vywsLDqDFRwWFhadwQoOCwuLzmAFh4WFRWewgsPCwqIzWMFhYWHRGazgsLCw6AxWcFhYWHQGKzgsLCw6gxUcFhYWncEKDgsLi44A/g+mmmzwHUnyuAAAAABJRU5ErkJggg==;" vertex="1" parent="1">
          <mxGeometry x="161.15" y="675" width="151.06" height="50" as="geometry" />
        </mxCell>
        <mxCell id="-EG4-MyawE5n80xoi_2L-384" style="edgeStyle=orthogonalEdgeStyle;rounded=0;orthogonalLoop=1;jettySize=auto;html=1;exitX=1;exitY=0.5;exitDx=0;exitDy=0;entryX=0;entryY=0.5;entryDx=0;entryDy=0;" edge="1" parent="1" source="-EG4-MyawE5n80xoi_2L-385" target="-EG4-MyawE5n80xoi_2L-375">
          <mxGeometry relative="1" as="geometry">
            <mxPoint x="392" y="700" as="targetPoint" />
          </mxGeometry>
        </mxCell>
        <mxCell id="-EG4-MyawE5n80xoi_2L-388" value="" style="whiteSpace=wrap;html=1;fillColor=default;" vertex="1" parent="1">
          <mxGeometry x="32" y="760" width="290" height="70" as="geometry" />
        </mxCell>
        <mxCell id="-EG4-MyawE5n80xoi_2L-390" value="NTD(T, T&#39;)&amp;nbsp;" style="text;html=1;align=center;verticalAlign=middle;whiteSpace=wrap;rounded=0;" vertex="1" parent="1">
          <mxGeometry x="44" y="780.01" width="86" height="30" as="geometry" />
        </mxCell>
        <mxCell id="-EG4-MyawE5n80xoi_2L-392" style="edgeStyle=orthogonalEdgeStyle;rounded=0;orthogonalLoop=1;jettySize=auto;html=1;exitX=1;exitY=0.5;exitDx=0;exitDy=0;entryX=0;entryY=0.5;entryDx=0;entryDy=0;" edge="1" parent="1" source="-EG4-MyawE5n80xoi_2L-388" target="-EG4-MyawE5n80xoi_2L-395">
          <mxGeometry relative="1" as="geometry">
            <mxPoint x="381.5" y="795" as="targetPoint" />
          </mxGeometry>
        </mxCell>
        <mxCell id="-EG4-MyawE5n80xoi_2L-394" value="" style="shape=image;verticalLabelPosition=bottom;labelBackgroundColor=default;verticalAlign=top;aspect=fixed;imageAspect=0;image=data:image/png,iVBORw0KGgoAAAANSUhEUgAAARYAAABVCAYAAACM9ss5AAAAAXNSR0IArs4c6QAAAARnQU1BAACxjwv8YQUAAAAJcEhZcwAADsMAAA7DAcdvqGQAACJJSURBVHhe7Z0HWFNXG8f/IZAQwl6CgODCgQP9qlXrrKPODuugVuuoWlt3rXvWVWe1dUEdddSNSK1a3OIeOHGiIih7BZKQnbzfDVwVFZWpwd7f89xHcs41uck953/f9z3nvIdHDODg4OAoQczYfzk4ODhKDE5YODg4ShxOWDg43hkEvUaGx5GXEStni94TOGHh4HhXaLORfjoIfbv1xbB/7rGF7wecsHBwlCLGsRGVTAaZhi3Ig1adjcjzobhlURcBDXzY0vcD0xaWpAvYuXUNJvbzR01ff4wJfYAM1bNBLM29I1g1ozdq1ayKhl//hKUh1yBT6thaDo53iF4NRVQYVkwdiC8at8BPBxPZiidooc6+iYgDD+HVdTA6V7Rgy98PTFtYXOqiY5f68Ekn6GS3sGbtftzJysYT6bDwaYKve3RCvRo/YNakEfjmkxoQW/LZWg6OdwhfAJHX/9C+gSsepNqhtqcrW8GiUUF27QJ2SFph5NeNYPueNVvTFha+EGJNKm5XH4+5o9rD+kogtpxKgpS1WngWIlgqHkHfoRn8vNzhKBbAjMfLqftPoJZBKlUz5jb7msOE4MHAdK/Mx5HIMm+EOlXzKgcxupKBS6dDYN5lMLpUETBnv1+YfIxFfvcilP6+aNjrB3xbLgu71/+Lu3mslqjrR+Dv6wKx8P0yJV9PPE5uXIRRX9ZF3QHBeKDRM02Vw7QwQKtKwO2Iy+B3bQE/K7Y4B+Zu8c3hWqUfZgx4/6wVIyYvLDEXr8LPwxk2Lq3Qe1gz8K8EIfh0EmQ5VksSHpysh9oeYlj+l3QF5dDgi6YodycRNnW84GbGe++eeGUe0kGT9QDn/s6EPGorlv0Rgv3bF2LoyG24oTGDhZUb/Lv2xccV3j9rxYiJC8t9XD9ZEzW8GeEQClH5i2/Rq1wmtq0Py421ZFzHMcv6KG8tgkWpfhMNZBoyIZfDHJbSR7iQTGhcrxoEjLBwmBg6DZR3r+MwvPFFnzEY+VVbNG7aEvXU0zFq9WVoeXwIxGIITdVaIQNII2daftEoQneUIHxmW3xU2wc+PiVxtMaCg3HIyu8bJD3ABe/68LCygoDpO3y7ZuhvtFou70DYxTRI7lxGygdV4CwSMF2t9EgPn4EWY3bhulQNPVv2rkm7cRThum5oVdsOfE5YTA69To24excgEXVG785+cLAVQ2TFPCAN6YiKTISUPc800UGedAHB0zpj7vFktqxwFEFY7ODfphPcshVIiRXh41FrEBJ2DOHh4QU4DmHf7o1YMXMEOtSxgSQ1HrGxJ7EqPAIZ2Wr2/Z8hfxgBpb8n7BjhyBF2nhBVOvXBl64PsXbDIfx9Yi9qVXWClbA0ZYVpJJlJiE9j1NtgKiaLGvdPh0Cpj8GO5aux59geLPh2ANZelEFnYE/heIcYoFUn4lbEZZh/2Rr17IytV8eUxSLqJA8GW8bCzj3RZNFr1ZAkJUKiLNqjtAjCYgbbDwZi3I/N4e6agF0rd+CGUgRnL294e7/pqIIadZqgbffBmLv2AM4eWI0xnSsjKyQcF1PkyDNFJYeYiCvw83SGleCZcPCdP0avfnVBZ6Zj/HxveDlZw9KitJ/YzIWZjBtk5DYidsvh0LYnxvzYC20at0ZAR0tMG7Icp+U6plmzqG9j34ZduJzJmLVsEcfbQA+9JhkJ13SoVrM8HI3NU6uF8vZ1hGe4oWurOrDJPRGkVSLj2n5s238Tpjarvziuf5EiEzyBNer3m4GZ3arBOnU7Zi0IwZUkGbRs/avhwYxvDoHIGg4u5VG9UU9MCVyG8b5huHonGfLnlIWNr1QwxlfyCIeZJfx7DMBnFnqomzdDdWcRBKUaXzFB4u/iSKwBHft9gXrlHGEjEsPO1pxxDa8gzigiT35G0kIBV3iI2dccbwk++Bbl4Pk/Hiws+EwnI6gViTi9ZwcyO/yEIa0cn3U85maRXgOesxueGzgq4xS5S1pY10DX4T/i86rWSNs3Bb+GXkKK7M3SkhczcxHsyzfHD7N/QtqF+0iXKZinrRy3DgRh3tDBmHJ0O5Yt24hDt6XIO6HWwrUD+o1sgObtasH9iZv0HyLtxjGc0H6JNg2cIWTjK9F3jjA6Yg2rvF6hsDo6ftkQLhZm3KjRW8UMQmsffNxnGjy3rcGWg/9i56IFOFRlLnYs7g5fy2fdzjgXy6FWO3T2dyh6ZzRFjImeioxOQUlhk6lRBQeydmxBs/fGUIaKrSsMOglFnrpKcdlK0pGe1NmZlJ4cRzExsZSQmkFytZ4MBvZcFo0smZKlKtLpX6goBZJD+5Frzz/pQobx+t49NwL9SVRnDp2Ua5hfy8ht+uNjMbl/tYVilDoyqK7SH6MX0l/z+lGvtddJpiv934jjRQykV8koJe4xxSclUWpaMqVK1ez9YmrVMko6E0ijZq+mhcOH0vYoNVtjCmgpM/Y4BX7jSyP2x7NlhaN4IskXwbXlSMwd0QJO/CtYuGAdjj/KeClW8kb4dqjRoCbcRELG+jCDwMoOjq4e8PauAHdnB4gZX+fFCbUW1q5wtWHO/w+OiLh5NQBPaMl899zXslObsPzhxxg/qgPcBXykn9wNw6cBcMk6hXtZKpMPFL6fMG6/0BouHh5wc3GBk5MrnG0ErFVigFqZjmvhPHzSyQ6S09GQabm1Qs/BEzrjo36jMfwjR1hc/Q3zA8PxKF1VyGAhD3yBBfj/pen4xcCh1XAs8wvBpp3HcTx4OkautcP0XYHo72+XE29yaDICvWrdxr9rK6JXqxow54aj3yGMwJi96IoyrpKNB5r07YDy985gV9XuaF71/bpHxRYW4w8ncGyEwTOnor2LCHdXT8DMPZFIknOrjEsLM1ENBCzcjkmta6Nmy+GYO+87dKzjDlvjZB8GvpUjpOHrscmvM1q5R2DJxivQ64sR4ucocXiM2JtZJCFiz174fVwXonOB2HGTrXwPKAFhYeAJYFMzABNmfI7K1inY88uvCL2Wyph3bD1HCWMOK2cPeLgz7qCTM9zK2cGS//wTL1uSBqGXAZGrDsKrvm9OQ+YwJQgGgxLyDB5ss6Ow9YwH6lVhq94DSjRLv05xH6FjemHk1jtQN5uNkMB+aOxhW+Z9/JS/+6P21hbYuyoA9R0sn45CyeVy3Llzh7EGTGU+7jM00kQkyszhIGTcTDsnWJnzXopTlTZGF6BBgwbsq9ejlkrx8hTJ18PjCWFjI2Rf5Y/BYEBiYiLi4uLYElOBERa9CtKUNCgs7JkHAx+2DlalOoM8P4z3yNHREZUrV2ZLjOiQ9eg0tk0djFsBx/Bbh/JsecEp4e0/9FAmHcf8/gPw+1k5Oi8+iAU968HNumQMo3fFq4QlKioKs2fPzhEYk8R4a99h3MrS0hJbtmxhX70C5hr1yWcQuHAZTsazZQWBZw6nat0wfOLnqP4abdFqtdi9eze2bdvGlpge7/I2CYVCNGnSBMOHD2dLjJicsDCQHCfndcXwi40x/Zfh6FDVGXmG7cskrxIWjUaDjIyMnKcix8vwmN7i7u7OvnoNOiUkGZLn5iq9GWPA3wYOTtY568hehbF5G4VfJpOxJRx5Md4jkUgEe3t7tsSICQpLcvgvGLRMis5jBqP7B96wL87kLM0jnA47g8wKbdCyphPEr2tBBSYJ50MvwqJJG9R2Ltiq6FcJy9tFjYen/0ZoyF5cSvLC17Omo11FAYyhFdmdHVix/CBu6KxQu8NQDOvsC/ELMReOt0FuDpaIXXux58h5pLu0x8hZPeEnYKwydSbuH9uEDaERSBf7oVnvQehdz5H9f6ZG8YWlRG0JDdPAZ/1yH0169UGXuhWKJypGkiIRuvscHqQrUdxBjaTzQVgyZwKmjZ6A3qO24XKiArqStdVKGQE86zeAV3omJOmrMD7wONK1uQmexJXao2PtLNTqPhb9WlWEiBOVd4QZzIVOqNq0EswfxSJ2/wws2G3Mvp9rXXnU/QSN7G3R+oeB6FLDLve/vKeUnMWSHI55362EtONIDOreAN72Fij2QIQ2G6npCljYOsBWZF6s99MpJZBma6G/vgH1Ai5gYtgq9K/rDKsCmB+vt1jScWhse4zbJ8k3E3vhqYax23ZiQH2rl60p9TlM/+4ePgu4h+F9z6JjaDDGfWjHnJeGfwbMgWDhfLRx+u8tcXgjxjVTMaEY0XYijrNFxcLcGg4NJmDLpgBUZYueolci48EejN5uhcH22/BdYDksPfwr2rhrIU+7jL/GRqHd2j6oZNLhgeJbLMWb0v8E9W3aMexD6vnzdroen00mPYP80gryKtedll9KpewCzs9//ZR+HaUfnkEt7KzIHH40dO1Zirx9j+7dK8hxky6fO0S7/phD37SuSBbmZozIC8h3/kmSqfO5uNvLqXvgTZLLkyh0cBUq1zmQLim1pFedpSnfh1CcSkfc5P38MJBGFkM7htci8C3JuslkCrmZ3/3I74iiqOsX6eTev2jJxC+okRtjJPLMycb9I1odyb59HvQqCT3YP4omHs2grEcHaWbrCtRy7jmS6bIp/e52+n7ZZdKy55ouxZ/SXwLCoqbb6wZSm94zadetJFIUae3OffpnzlY6n5xJOUuNkk7R0kXbacvMvjR49Ul6lKVmO4yaZDIpZWVlFexQ6umlyylxYWGarSqTjs1pQXZWYnKs9SP980hOmgL9DAbS6zSklGdRSkIMXTm0nAY39yBR9Sl0JE310mfF7/iKZp2VkppRbkX0ZupbpTz133WP1Jd+p25Bt0ih5WTllRg0JHkUQmNq84hv703NZp8mKVv1RvQ60qoVJJUkUuydU7Rrdk9qUMGFmvx6iWmReTGQWppEJ2YNod1xBqZdpNODHWOpaeUetOxiIt0PHUqTj8vYc02Zd71WiCH5xBJM3O+MbkN6o2UVF1gWwV+RnNmEIHMx7PkWEOABQhbfQNXWjVHe7h6OhF1BrJzN3JZxC0f2hmJXcDCCC3IcuI5MlbaQywsKD09ohyZDF2P+p27QPFiL8TP34F625llelFdiTCNhAUuxLVzcvVGnRV/M3bAKPzqvw5FIGXTPTY9Jw41j5fBBZcbVYX5jkffnGD3cD3tmrsbcncdRr1aF0p26r5bm7AhQZuFZwM69NUb/Oget+XG4vHIs5hxMYCvfgBkf5gIRbOzd4OX7IToOmY/AmX0hCDyIyOfcXz202gTcuNcItd144Ans4d68D/o2uYoFswOx/awVPvIrvRwWZDBAJZND/gqXnHRqSB/fxPXHb2F6BCswRUJ9ZycN7/At/RIcSfHyopnhslvbaGS7NjQx5C6lKZh3kF2lv8NuU2raRVrW1odazQyjaAlrseiUJM3KJIlEUrBDylgYL5ospWCx5KJlLn01BVS2JpGNK/XecoNxZ56sZS0EBiVJLiyhHj/+S0mMm/P06lXnaHrfrXRf8axMKz1KM5q4krPDYNqTpC4lFzSOTqxfSCM7V6ZKATvpMVtaNjGQTp5Ix+a3IyczK3LzHUkHEtiqwmDQkzr9IR1b3Pt5C0SnoAzG3em/8Jm7Y9DKKf7cb/S5jzf5BmykB0VoEm9Eq6Cs2/tp2eSB1KVhcxodlsRW5EVNmY8P0Px29ajxV8GMj/A63qXFknICSyYGw/rT/ujRqhrcrPiFGwHSSHA9ZBr6fT0RGx/Xgr+fE6wsmXewqo7WLapAcOtf/Hm3Cpo3rAYHK4vc9+ZbwsbWLmfMvUCHjeVbXP1sDmu/ACxY2BcekCJ01FhsuCyHurCTcnmWsK/XG+M6usBgnnvt6RHBWPrzL1j18AS2HLsPrT7XFjK3aYLvx34Gy06tUceOX/xgeb644n+fNYLj1WgI/TxRji0tm/DAt3JFw76LMK+HCCkxWzF83FZEsbUFhmcGgb0HGvQahTZ2SqaAoFNn4crudVg0awEuXjuIvVcyck81t4JLjc8xbGhtuDeuhQqlEbRl+oW1Rx0087PDg0QRqro5sRV50CiQFXkR+27zUK1THXixxaVF0UaFNHcRPLY/Vqa2wjfdW8PXXZwzn+LNZCM5+iZunDmGYydu4X5yEpLSZPD4YTP2Tf8Mvk4iVpwkODquJfpE98H2Jf3g8iiO6WzV4SyNxN8noiBVaHPOeiNuDdGtpS+sLfNMlL68EhU6Hsf4/StLaFToeUiZgP3zAtBr4WVYNJ+JkL9+QBMnS7AaUUCYhqpi7FlLYc4Ub71SikypFBKNOewcHOAsFj6dqUnKNMTKRPB0ERfyMwpB/DZ08ukFz38kCGpf9odJyaCGJGoHpnXvi9UJFdHt17/xZ99ajBteOBhzBBqdGYQCPmP566GWZUEqk0JhZgNHB3vYPtmVM6cuhXFmneBhW9hPKRg6WQLOrfkeX6+og7+uzkIza7aCRZP5CEdWfoth+5viz38mo7nD6xYPvJNRITVd+qM7/a+CiCxtncitvAd5enoW8ChPbq5OZG9tSRZmPGL6ASNqlWj41ju5btATMk7QpFoe1DfoAiXc30cTfj1MMekK5j4qKDUujh7FxlJsQY5UBTFPd/ZNc1GfnUWerl8WyhXSXQ6k/ouOUJz8SRD5dRhImRxG05rZkkjsSC1nhFMq476UZVL3f0tWvAAKTiwNO/5dYCC9OoOiNg+lWjwLcqzYlX6PNKVES4VFR9nJF2hNv4pUaVQYpb7USFWUEf0PzWn8IfX76zap3tiIDaRIjaajK4fT6kvZbFnhKILFQlBK4pGUoWRM8pIIiwrgWN4DDmJjPha2SBmJoN69caXpCFSIk6Nm/x5oW90NYuaRbAxQFfhTGZP1iXuQdCEY4feyEX3kd8zffh/+vUeiZwMfuNbthI7+rhC9LiG3RopUhQUcbQvoWpEKmZeC8HWbSQjnVUbvdaFY3LkixKWe9Ls0UOPMJFc0neePHpN6oU87T9zeEAKX4SvR1//1CwBNGqbZa7Me4+iSAHSYewteH/2AjbvmokU+XoTJw7S39Lt7MLnZQOz8MABjunZAHXEMjl3zwcAZX6C6ccuRf5dh8FJgVuiUN1gruZBeB1V2JrRCJ9jmzTldUHLkxdQwqCkrIZYePUqm5Ph0ytYUf36GVpFJmZIMSol/SPei7lJMQjKlZ2RQJmNNlEp2S62ULq3qSRXFIrKpOYi23ZKTpkw+8K/Q0qo8cu64ks4lpZNULqUHWwaQS70FdL4oaUhNCYOWZPGHaHZbJ+KL3emjCQepKLHcd45KQjF/T6OarnWo/6bLlJIhoeQHx2nFEH/6bM01UiqZ+rMbaeW+BwWwVkoG0xQWFkOp9Pi3h1Z2k9b3rERikS2V67mRbsqe5TwtM8RtoU4WPBqwO4U0bJHk3+8I5t1pZzJb8BQDPT6/lbadT2Vfmz4GnYwSTi2mtk5mZOVenX7YW/akRSuNp1OLu5BnpQl0KMPodutJnhRBawaWJ9+R/1KaQU9apZSkygL6/iWASU8sLuvJicytq6HbgqUYVJuQuf8nrDiUDJW2JNzHt0da5BEc1/VEh0ZOT/PqRN8+DOjsYPVioh3SQJdpgNix7GxkweOLUa5+byxa3BueybEIGbsK4WVqIbQeGmUC7kTegEWXlvC3N7o5WmgUj/HgPA8GaxHMeWYwt7SBzZNg8lvApIWl7MOH2KsFOraqDLcWo9CtsRMEpTZ0UzokRZ+Boro/vF2eXPdtXNwdC+een6D+iwNEPAE8PuqCVt4itqAswIOZpQMqteyI1tXc0GL4l/igTO3DpIdWlYKkmzpU9fPI3RxNo4L87k2czXRD52Y1n26O9jbhhKWUSTw8H7Ovt8fsX77Fh67GpwdbUUYo5/mBMRsQzNmWIj25Ab9Ht8PUcR3g+qT1UBz2LV6MfYc2YvRni3FFVZa+pAFa5QMcWPo74r76DQv61IS4TPUKPsyFzihfh7lNOZujGaCUxuHsgX3IbjcCA5s7vdDJCRp5Kq4f2o3w6BJZNZsvnLCUIpobGzFhxiN8Ovp7dK7mAlEZdO2cWo/C8hrbsWb7SZzcPQOj1jpi5j+r0a+2+Gnjif93HWStv0HTyiKknbqJxEy2ogygV0twYf10LJZ+gynD2sLLuqwlUuVDZF8VLbuNhmvwemw/8C+CVwTijO9U/Dm3K6qJXuziBL1BA6XKHI72pfddSz6DHEcuiYcxpddvoAFzMbKrH1yYx2DZkxUjWsgT45CqtYSlJQ86rRDO7g6MSLLVDFppCpQiF1hcmAz3wTY4eHUiGpaB/mnQKhD1zxQM3OiI8b+PRPsKNmUzPzMZoFPJkJIsgYGxLgVmBIOlE1zthPlaDmTQQa1Qw8xKXGrbE3PCUhpobmLToG4IqbYUS79vhQr2gpLLaaq5iwPB0fD6rB2qi42mbxFRp+Fi2CkIWn6KOnZvFr2c+UN55gW9BNOMbv5WHXWig6D4vSVMfoaLXo2Ms2sw5NtwNNsUhEENHGBcUVIi6LVQPrqCsOsCtPjMH0XNE0fMNWYlXse5W9Zo2q4GXphMmw/GzP8E3kv7GDEYmPd6fBX7tt6A0EeCY1dr4sd5HVGJrS5pSkmv/stocHP1z1iu6ouhfZvAo0iiEoVdkzbjikr78gpp5skkM3OCo4BXRAsoAaf/2oTQfeuwcFgIouQFe64YG+vrPDlCPK4ffogerWqavqhAD1VmBP6Yvx6WI8ehb70iiIpOBVlkMGbsfHkzIKZ7Q6OTgazsUKQwtl4F+YNw/LVxJ3auX4GpYbFQsVWvJ7/N0YwQVNJM3Dp5G549WqGquRIRB++jNNc4c8JSwiQenoXh+ytj2OT+aOxmXaRgbXr4H1hq5QIvRpFeukHWtfBJpzpwMS+qa+UC/06d0aquG7TJchhHv4tlsqpludt2pEZgf3gLtKtv6lNXDdAq7mP/nPE43WAqZvWpC9tC+z+McCge49T6IFiXz7ttRi48MwGsvRuh7UeesGTLCoWZEFae/0OHto1Q1VGNlOzipv7gQWDjhLqdP0c9JwEyJXeQ1bIGPNja0oBzhUoQzc2/MPi7A6g1dTa+beUFe+Oe02xdQZHd2IDRg1bDbVYoprZyhpCdeiCL3Ipl15xRJ24jdnuPxcrutSA0DtWkRyA47A4U7IrnV+H8QXe0ryF6ZnUk70A3r23oGr0TAZ5FdaluY3XTgYj7eQ3aXJqEn1MGYuu8TozosdUmiF6dgfPrvseYi62wdFE/NHS0LOQ9IuiUCTizeiKm7K+FRaHj0JBVD706Gw+PrMVetTdsz2xGZvd1+LGhNYixbrJuHcaeq7krnvOHBwuRPWq27oK6rO+kz07BpW2j0f1CACKCujCPhOKiR3ZSBELnfIvDLfdi7Zc+pWdZGIWFowRIOERTP+5CEzdco8Si5KZRp9GlLWOofXUPsvGbRAfzZpBTR9DalWF0P1lCF+b5ktOU4yR/kutFm02SjHRKT3/9Ycym9xxJ2+lLiy9o82NdMWYDKyn+zB76+8gVuns/imLSFMVeelGa6DUKuhMymj76dCaFxkifziQuKAa9hrJijtCKgU2porcHNV94ITfjoRGdimTRYbQw5Co9jj1HG77xpEF72FwmBj3pFJn53pe8R4YkkxR5Jsfq5Ml0fk0vqjB4D6WwZcXCoKCUG7tosl8HCrxWugtjOYulJNDcxF/f9cAK9dcY07c5vBwEBXwKypF4LxKRp4/i6MkoxKQlICFZhgrjw3B2Rms4PTFXSIEM5mFn75iJkO41sLv71ZynjWVxJsWUiMXCXBrzNFZqAAuhEBamvDuAXgPJuT8wqO9m2I6cjn4NHQsWVyED9JlxuHXlCk4eP46z9x9DkpwKpaA+pocdxU8N2IgS040MWjnS1XwIJcexoOU8uO46ghH1ij7OVFIWC6P20Cq1EJhnI/rAOvSba4aF4aPxYSkGwzhhKTYanP+tM/rMOobHeme42AoLkXCJ8ffVSijlMsiz1TnxDqAqJhw4gxmtn7lBT0k/hKE1foX/wWD0ryPOnbQWcwDT152C9vk8li9R8dOxGPChw7MV5CUkLGUDHVTpRzC3TR8sui6DyK0cbArR3xlTByqFEtnMfcrWML+zuRiODWcg7OhPeKIrT9FlI+V0IDp/lYGlD+egCVNPmmwkntuE5WGP2JPyR2htj+Z9xoHxonMoEWHRK5ByLQxLxhyB3+Ru0O/7DZc+nI8FAdWKFv8pIJywFBtCdko04jLUeEOYo4AI4epTEU5WL8dnNOd/hs935tgaPhbN7AS5YqCRIjFdbnxgvhaBXTk4iY1Z/hJwevNRRCecwPKJR+AzdSo6VqyM1r2bwrMMTuArGMRYVjIkRcdBUqjdFl8Bzwx8q3Lw8XZ4aQRMr8zA9e1D0OVcP1wN7AhnYyFj9WizM5Aqff1MV54ZH9aOjOjx1ZDHnMXOozcRFb4ZQbeqYdzYjqhWtTm++KCQOfyYz9ZIU3HnzCWkOVWCTzkRrJ094Cou3UAYJywmjwYyjQDWAiByVT10ivsF16a3haOgqAvKtJBnyKDRKZCZpoC5oxPEFkLYOlmX+c373x3GLAFaZGvNYa64g5CfOiG0zQlsC/AqmiVodKs0ckhkKmiUMmSpLeDgaA2hpTXsX1r5WQCY99NpmPcixk0T5u6eWdpwwmLipIdPQrs1vlg61g7BI3bAd8FKDP7AoUBbw3K8HXSKdFza1AczM0Zghv9VLF2rQv+gKWjjZMLDY6UMJywmjk52F4ePx8K2kg9chWK4epWHjbCok+M4SgNjDEb6+AJO3tTBq2oFiEX28PQsYHD4PYUTFpPHmG9DDb2ZgDFjzd/zIGvZxZhYW63SgmdhCQFjTv7XhZ8TFg4OjhKnUMJy/vx5TJs2DfHx8WwJBwfH+46FhQUaNmyIoKAgtuTNFEpYsrOzc0RFoym9BDEcHBymBY/Hg1gsho+PD1vyZjhXiIODo8ThYoEcHBwlDicsHBwcJQ4nLBwcHCUOF2PhKABqyGRswF5gA5tSXBXL8X7AWSwcr0GNh2EL8cO4JTh07ibO7fsFwz+pi/bfL8DRBPYUDo584CwWjleSEDYO4259jClf1kE5B1vwtRKkXdmKUYMW4rpHfwTuWID25dmTOTjywFksHPkjO4OgJXp0+bQhfL3Lw8HWGrZOXqjUfDAmfeeD2POrMeS3YyhTu5FyvDU4YeHInwcRWHVqMyZ/PgzB0XmMWoE96jduB+gyEbvmCG7lZNLm4HgeTlg48sfaAbXFKYi+GY10Rjzy+ssCIbsbsCQWKdLcPzk48sIJC0f+VOiCtQdO4MSFTehR8fk0DWkJ13P/8K2Bcg65f3Jw5IUL3nK8GtJDD/4LGccSsKtXTXTbao5PAk9h93fVi7YpF8d7DWexcLwa3ouiAmgi/sTsvVmoPWIZfg+owokKR75wwsJRcBIOYMqw38D7ZAWWTf4MVe3+u6kXOV4P5wpxFAzNXWwe+jWCeEOwZGoP1PayhYCt4uB4EU5YOApAAg6M74214qGYOvAT1CxvjaLuEcDx34BzhTjegAaRf07E7koT8cuQjvB7KiqM2Py4CBFczi+OfOCEheM1MKKy/ges5g/A+B4tUNlV9KzBqGNw4poYtlyYhSMfOFeI45UkHJyA7mP3wapqPfg4vLCkWRWFPVaTcT+oHdjpchwcT+GEhSN/YnahV+vBCH6syNl25CVIg2oLI3Hhe1/O7OV4CU5YOPJHlYa7tx8j+zXNw8a7Fqo6cWNDHC/DCQsHB0eJw1mxHBwcJQ4nLBwcHCUOJywcHBwlDicsHBwcJQ4nLBwcHCUM8H/14UHcRElP7wAAAABJRU5ErkJggg==;" vertex="1" parent="1">
          <mxGeometry x="130" y="767.15" width="182.21" height="55.71" as="geometry" />
        </mxCell>
        <mxCell id="-EG4-MyawE5n80xoi_2L-395" value="&lt;font style=&quot;font-size: 16px;&quot;&gt;2 / 10&lt;/font&gt;" style="text;html=1;align=center;verticalAlign=middle;whiteSpace=wrap;rounded=0;" vertex="1" parent="1">
          <mxGeometry x="381.5" y="780" width="49" height="30" as="geometry" />
        </mxCell>
      </root>
    </mxGraphModel>
  </diagram>
</mxfile>
